<mxfile host="Electron" modified="2023-05-08T12:02:40.167Z" agent="Mozilla/5.0 (Macintosh; Intel Mac OS X 10_15_7) AppleWebKit/537.36 (KHTML, like Gecko) draw.io/21.1.2 Chrome/106.0.5249.199 Electron/21.4.3 Safari/537.36" etag="EYal4vgYy8IE5DkyEAGR" version="21.1.2" type="device" pages="2">
  <diagram id="mye7cpsdecRdVJIh1ltE" name="Page-1">
    <mxGraphModel dx="2099" dy="899" grid="1" gridSize="10" guides="1" tooltips="1" connect="1" arrows="1" fold="1" page="1" pageScale="1" pageWidth="827" pageHeight="1169" math="0" shadow="0">
      <root>
        <mxCell id="0" />
        <mxCell id="1" parent="0" />
        <mxCell id="GoWqnwifKlF_Yr-xNYbi-38" style="edgeStyle=none;rounded=0;orthogonalLoop=1;jettySize=auto;html=1;exitX=0;exitY=0.5;exitDx=0;exitDy=0;entryX=1;entryY=0.5;entryDx=0;entryDy=0;" parent="1" source="GoWqnwifKlF_Yr-xNYbi-1" target="GoWqnwifKlF_Yr-xNYbi-3" edge="1">
          <mxGeometry relative="1" as="geometry">
            <mxPoint x="270" y="380" as="targetPoint" />
          </mxGeometry>
        </mxCell>
        <mxCell id="qn3d2HcTWaKksIYHcs9O-18" style="edgeStyle=none;rounded=0;orthogonalLoop=1;jettySize=auto;html=1;exitX=1;exitY=0.5;exitDx=0;exitDy=0;" parent="1" source="GoWqnwifKlF_Yr-xNYbi-1" edge="1">
          <mxGeometry relative="1" as="geometry">
            <mxPoint x="530" y="380" as="targetPoint" />
          </mxGeometry>
        </mxCell>
        <mxCell id="GoWqnwifKlF_Yr-xNYbi-1" value="Яндекс Маршруты" style="rounded=1;whiteSpace=wrap;html=1;arcSize=22;" parent="1" vertex="1">
          <mxGeometry x="340" y="360" width="120" height="40" as="geometry" />
        </mxCell>
        <mxCell id="XxnkFZLl8l21hD6HUk1a-45" style="edgeStyle=orthogonalEdgeStyle;rounded=0;orthogonalLoop=1;jettySize=auto;html=1;exitX=0;exitY=0.5;exitDx=0;exitDy=0;" parent="1" source="GoWqnwifKlF_Yr-xNYbi-3" edge="1">
          <mxGeometry relative="1" as="geometry">
            <mxPoint x="139.76470588235316" y="380.2941176470588" as="targetPoint" />
          </mxGeometry>
        </mxCell>
        <mxCell id="JOR5eb2Kpy74Wpw3OGH0-26" value="" style="edgeStyle=orthogonalEdgeStyle;rounded=0;orthogonalLoop=1;jettySize=auto;html=1;" edge="1" parent="1" source="GoWqnwifKlF_Yr-xNYbi-3" target="JOR5eb2Kpy74Wpw3OGH0-25">
          <mxGeometry relative="1" as="geometry" />
        </mxCell>
        <mxCell id="GoWqnwifKlF_Yr-xNYbi-3" value="Интерфейс" style="rounded=1;whiteSpace=wrap;html=1;arcSize=22;" parent="1" vertex="1">
          <mxGeometry x="140" y="360" width="120" height="40" as="geometry" />
        </mxCell>
        <mxCell id="oigtg8h2ie4QQOlHJKOF-6" style="edgeStyle=none;rounded=0;orthogonalLoop=1;jettySize=auto;html=1;exitX=0;exitY=0.5;exitDx=0;exitDy=0;" parent="1" edge="1">
          <mxGeometry relative="1" as="geometry">
            <mxPoint x="-320" y="375" as="targetPoint" />
            <mxPoint x="-250" y="375" as="sourcePoint" />
          </mxGeometry>
        </mxCell>
        <mxCell id="oigtg8h2ie4QQOlHJKOF-7" style="edgeStyle=none;rounded=0;orthogonalLoop=1;jettySize=auto;html=1;exitX=0;exitY=0.5;exitDx=0;exitDy=0;" parent="1" edge="1">
          <mxGeometry relative="1" as="geometry">
            <mxPoint x="-320" y="405" as="targetPoint" />
            <mxPoint x="-250" y="375" as="sourcePoint" />
          </mxGeometry>
        </mxCell>
        <mxCell id="oigtg8h2ie4QQOlHJKOF-8" style="edgeStyle=none;rounded=0;orthogonalLoop=1;jettySize=auto;html=1;exitX=0;exitY=0.5;exitDx=0;exitDy=0;entryX=1;entryY=0.5;entryDx=0;entryDy=0;" parent="1" target="XxnkFZLl8l21hD6HUk1a-30" edge="1">
          <mxGeometry relative="1" as="geometry">
            <mxPoint x="-320" y="315" as="targetPoint" />
            <mxPoint x="-250" y="375" as="sourcePoint" />
          </mxGeometry>
        </mxCell>
        <mxCell id="GoWqnwifKlF_Yr-xNYbi-43" value="Панель ввода адреса" style="rounded=1;whiteSpace=wrap;html=1;arcSize=22;" parent="1" vertex="1">
          <mxGeometry x="-250" y="355" width="120" height="40" as="geometry" />
        </mxCell>
        <mxCell id="oigtg8h2ie4QQOlHJKOF-4" style="edgeStyle=none;rounded=0;orthogonalLoop=1;jettySize=auto;html=1;exitX=0;exitY=0.5;exitDx=0;exitDy=0;" parent="1" edge="1">
          <mxGeometry relative="1" as="geometry">
            <mxPoint x="-320" y="285" as="targetPoint" />
            <mxPoint x="-250" y="285" as="sourcePoint" />
          </mxGeometry>
        </mxCell>
        <mxCell id="oigtg8h2ie4QQOlHJKOF-5" style="edgeStyle=none;rounded=0;orthogonalLoop=1;jettySize=auto;html=1;exitX=0;exitY=0.5;exitDx=0;exitDy=0;" parent="1" source="GoWqnwifKlF_Yr-xNYbi-45" edge="1">
          <mxGeometry relative="1" as="geometry">
            <mxPoint x="-320" y="225" as="targetPoint" />
            <mxPoint x="-250" y="275" as="sourcePoint" />
          </mxGeometry>
        </mxCell>
        <mxCell id="GoWqnwifKlF_Yr-xNYbi-45" value="Панель выбора времени" style="rounded=1;whiteSpace=wrap;html=1;arcSize=22;" parent="1" vertex="1">
          <mxGeometry x="-250" y="265" width="120" height="40" as="geometry" />
        </mxCell>
        <mxCell id="XxnkFZLl8l21hD6HUk1a-105" style="rounded=0;orthogonalLoop=1;jettySize=auto;html=1;exitX=1;exitY=0.5;exitDx=0;exitDy=0;entryX=0;entryY=0.5;entryDx=0;entryDy=0;" parent="1" source="qn3d2HcTWaKksIYHcs9O-5" target="XxnkFZLl8l21hD6HUk1a-102" edge="1">
          <mxGeometry relative="1" as="geometry" />
        </mxCell>
        <mxCell id="qn3d2HcTWaKksIYHcs9O-5" value="Логика" style="rounded=1;whiteSpace=wrap;html=1;arcSize=22;" parent="1" vertex="1">
          <mxGeometry x="530" y="360" width="120" height="40" as="geometry" />
        </mxCell>
        <mxCell id="oigtg8h2ie4QQOlHJKOF-1" style="rounded=0;orthogonalLoop=1;jettySize=auto;html=1;exitX=0;exitY=0.5;exitDx=0;exitDy=0;entryX=1;entryY=0.5;entryDx=0;entryDy=0;" parent="1" target="XxnkFZLl8l21hD6HUk1a-34" edge="1">
          <mxGeometry relative="1" as="geometry">
            <mxPoint x="-330" y="465" as="targetPoint" />
            <mxPoint x="-250" y="475" as="sourcePoint" />
          </mxGeometry>
        </mxCell>
        <mxCell id="oigtg8h2ie4QQOlHJKOF-3" style="edgeStyle=none;rounded=0;orthogonalLoop=1;jettySize=auto;html=1;exitX=0;exitY=0.5;exitDx=0;exitDy=0;entryX=1;entryY=0.5;entryDx=0;entryDy=0;" parent="1" target="XxnkFZLl8l21hD6HUk1a-35" edge="1">
          <mxGeometry relative="1" as="geometry">
            <mxPoint x="-330" y="505" as="targetPoint" />
            <mxPoint x="-250" y="475" as="sourcePoint" />
          </mxGeometry>
        </mxCell>
        <mxCell id="OxW7yi1mNQBKnJ8u3WXz-2" value="Панель выбора&lt;br&gt;вида транспорта и режима" style="rounded=1;whiteSpace=wrap;html=1;arcSize=22;" parent="1" vertex="1">
          <mxGeometry x="-250" y="455" width="120" height="40" as="geometry" />
        </mxCell>
        <mxCell id="XxnkFZLl8l21hD6HUk1a-4" value="&lt;u&gt;&lt;font color=&quot;#007fff&quot;&gt;Условия использования&lt;/font&gt;&lt;/u&gt;" style="whiteSpace=wrap;html=1;rounded=1;" parent="1" vertex="1">
          <mxGeometry x="-670" y="1057.5" width="160" height="30" as="geometry" />
        </mxCell>
        <mxCell id="XxnkFZLl8l21hD6HUk1a-13" value="" style="edgeStyle=orthogonalEdgeStyle;rounded=0;orthogonalLoop=1;jettySize=auto;html=1;" parent="1" source="XxnkFZLl8l21hD6HUk1a-7" target="XxnkFZLl8l21hD6HUk1a-12" edge="1">
          <mxGeometry relative="1" as="geometry" />
        </mxCell>
        <mxCell id="XxnkFZLl8l21hD6HUk1a-7" value="Хедер : Яндекс Маршруты" style="rounded=1;whiteSpace=wrap;html=1;arcSize=22;" parent="1" vertex="1">
          <mxGeometry x="-90" y="150" width="120" height="40" as="geometry" />
        </mxCell>
        <mxCell id="XxnkFZLl8l21hD6HUk1a-9" style="rounded=0;orthogonalLoop=1;jettySize=auto;html=1;exitX=0;exitY=0.5;exitDx=0;exitDy=0;entryX=1;entryY=0.5;entryDx=0;entryDy=0;" parent="1" source="GoWqnwifKlF_Yr-xNYbi-3" target="XxnkFZLl8l21hD6HUk1a-7" edge="1">
          <mxGeometry relative="1" as="geometry">
            <mxPoint x="150" y="390" as="sourcePoint" />
            <mxPoint x="40" y="300" as="targetPoint" />
            <Array as="points" />
          </mxGeometry>
        </mxCell>
        <mxCell id="XxnkFZLl8l21hD6HUk1a-10" value="&lt;font color=&quot;#007fff&quot;&gt;&amp;nbsp;Яндекс&lt;/font&gt;" style="rounded=1;whiteSpace=wrap;html=1;arcSize=22;" parent="1" vertex="1">
          <mxGeometry x="-260" y="110" width="120" height="20" as="geometry" />
        </mxCell>
        <mxCell id="XxnkFZLl8l21hD6HUk1a-12" value="&lt;font color=&quot;#007fff&quot;&gt;&amp;nbsp;Маршруты&lt;/font&gt;" style="rounded=1;whiteSpace=wrap;html=1;arcSize=22;" parent="1" vertex="1">
          <mxGeometry x="-260" y="150" width="120" height="20" as="geometry" />
        </mxCell>
        <mxCell id="XxnkFZLl8l21hD6HUk1a-14" value="*Серая зона, не сказано что делает Лого и Маршруты" style="text;html=1;align=center;verticalAlign=middle;resizable=0;points=[];autosize=1;strokeColor=none;fillColor=none;" parent="1" vertex="1">
          <mxGeometry x="-335" y="60" width="330" height="30" as="geometry" />
        </mxCell>
        <mxCell id="XxnkFZLl8l21hD6HUk1a-15" value="" style="verticalLabelPosition=bottom;verticalAlign=top;html=1;shape=mxgraph.basic.4_point_star_2;dx=0.82;rotation=45;" parent="1" vertex="1">
          <mxGeometry x="-348" y="58" width="30" height="30" as="geometry" />
        </mxCell>
        <mxCell id="XxnkFZLl8l21hD6HUk1a-28" value="Поле ввода Часов" style="rounded=1;whiteSpace=wrap;html=1;" parent="1" vertex="1">
          <mxGeometry x="-390" y="215" width="68" height="30" as="geometry" />
        </mxCell>
        <mxCell id="XxnkFZLl8l21hD6HUk1a-29" value="Поле ввода Минут" style="rounded=1;whiteSpace=wrap;html=1;" parent="1" vertex="1">
          <mxGeometry x="-390" y="252.5" width="68" height="32.5" as="geometry" />
        </mxCell>
        <mxCell id="XxnkFZLl8l21hD6HUk1a-30" value="Инпут ввода &quot;Откуда&quot;" style="rounded=1;whiteSpace=wrap;html=1;" parent="1" vertex="1">
          <mxGeometry x="-450" y="315" width="124" height="30" as="geometry" />
        </mxCell>
        <mxCell id="XxnkFZLl8l21hD6HUk1a-31" value="Инпут&amp;nbsp; ввода &quot;Куда&quot;" style="rounded=1;whiteSpace=wrap;html=1;" parent="1" vertex="1">
          <mxGeometry x="-450" y="355" width="128" height="30" as="geometry" />
        </mxCell>
        <mxCell id="XxnkFZLl8l21hD6HUk1a-32" value="построение маршрута на карте" style="rounded=1;whiteSpace=wrap;html=1;" parent="1" vertex="1">
          <mxGeometry x="-430" y="395" width="108" height="50" as="geometry" />
        </mxCell>
        <mxCell id="XxnkFZLl8l21hD6HUk1a-60" value="" style="edgeStyle=orthogonalEdgeStyle;rounded=0;orthogonalLoop=1;jettySize=auto;html=1;entryX=1;entryY=0.5;entryDx=0;entryDy=0;" parent="1" source="XxnkFZLl8l21hD6HUk1a-34" target="XxnkFZLl8l21hD6HUk1a-59" edge="1">
          <mxGeometry relative="1" as="geometry">
            <mxPoint x="-480" y="465" as="targetPoint" />
            <Array as="points" />
          </mxGeometry>
        </mxCell>
        <mxCell id="XxnkFZLl8l21hD6HUk1a-34" value="Панель Режимов" style="rounded=1;whiteSpace=wrap;html=1;" parent="1" vertex="1">
          <mxGeometry x="-400" y="455" width="68" height="30" as="geometry" />
        </mxCell>
        <mxCell id="XxnkFZLl8l21hD6HUk1a-79" style="rounded=0;orthogonalLoop=1;jettySize=auto;html=1;exitX=0;exitY=0.5;exitDx=0;exitDy=0;entryX=1;entryY=0.5;entryDx=0;entryDy=0;" parent="1" source="XxnkFZLl8l21hD6HUk1a-35" target="XxnkFZLl8l21hD6HUk1a-71" edge="1">
          <mxGeometry relative="1" as="geometry">
            <mxPoint x="-560" y="555" as="targetPoint" />
          </mxGeometry>
        </mxCell>
        <mxCell id="XxnkFZLl8l21hD6HUk1a-35" value="Панель транспорта" style="rounded=1;whiteSpace=wrap;html=1;" parent="1" vertex="1">
          <mxGeometry x="-400" y="495" width="68" height="30" as="geometry" />
        </mxCell>
        <mxCell id="JOR5eb2Kpy74Wpw3OGH0-217" style="edgeStyle=orthogonalEdgeStyle;rounded=0;orthogonalLoop=1;jettySize=auto;html=1;exitX=0;exitY=0.5;exitDx=0;exitDy=0;entryX=1;entryY=0.5;entryDx=0;entryDy=0;" edge="1" parent="1" source="XxnkFZLl8l21hD6HUk1a-36" target="JOR5eb2Kpy74Wpw3OGH0-215">
          <mxGeometry relative="1" as="geometry" />
        </mxCell>
        <mxCell id="XxnkFZLl8l21hD6HUk1a-36" value="Блок Заказа Такси с изображением" style="rounded=1;whiteSpace=wrap;html=1;arcSize=22;" parent="1" vertex="1">
          <mxGeometry x="-180" y="545" width="120" height="40" as="geometry" />
        </mxCell>
        <mxCell id="XxnkFZLl8l21hD6HUk1a-39" value="Стоимость пути" style="rounded=1;whiteSpace=wrap;html=1;arcSize=22;fillColor=#d5e8d4;strokeColor=#82b366;" parent="1" vertex="1">
          <mxGeometry x="-426" y="630" width="120" height="25" as="geometry" />
        </mxCell>
        <mxCell id="XxnkFZLl8l21hD6HUk1a-40" value="Кнопка &quot;Вызвать такси&quot;" style="rounded=1;whiteSpace=wrap;html=1;arcSize=22;" parent="1" vertex="1">
          <mxGeometry x="-424.5" y="690" width="120" height="25" as="geometry" />
        </mxCell>
        <mxCell id="XxnkFZLl8l21hD6HUk1a-43" value="Изображение автомобиля" style="rounded=1;whiteSpace=wrap;html=1;arcSize=22;" parent="1" vertex="1">
          <mxGeometry x="-424.5" y="720" width="120" height="30" as="geometry" />
        </mxCell>
        <mxCell id="XxnkFZLl8l21hD6HUk1a-53" style="edgeStyle=orthogonalEdgeStyle;rounded=0;orthogonalLoop=1;jettySize=auto;html=1;exitX=0;exitY=0.5;exitDx=0;exitDy=0;" parent="1" source="XxnkFZLl8l21hD6HUk1a-44" edge="1">
          <mxGeometry relative="1" as="geometry">
            <mxPoint x="-150" y="790.2941176470588" as="targetPoint" />
          </mxGeometry>
        </mxCell>
        <mxCell id="XxnkFZLl8l21hD6HUk1a-44" value="Карта города" style="rounded=1;whiteSpace=wrap;html=1;arcSize=22;" parent="1" vertex="1">
          <mxGeometry x="-90" y="770" width="120" height="40" as="geometry" />
        </mxCell>
        <mxCell id="XxnkFZLl8l21hD6HUk1a-46" style="edgeStyle=none;rounded=0;orthogonalLoop=1;jettySize=auto;html=1;entryX=1;entryY=0.5;entryDx=0;entryDy=0;" parent="1" target="XxnkFZLl8l21hD6HUk1a-44" edge="1">
          <mxGeometry relative="1" as="geometry">
            <mxPoint x="40" y="580" as="targetPoint" />
            <mxPoint x="140" y="380" as="sourcePoint" />
          </mxGeometry>
        </mxCell>
        <mxCell id="XxnkFZLl8l21hD6HUk1a-54" style="edgeStyle=orthogonalEdgeStyle;rounded=0;orthogonalLoop=1;jettySize=auto;html=1;exitX=0;exitY=0.5;exitDx=0;exitDy=0;entryX=1;entryY=0.5;entryDx=0;entryDy=0;" parent="1" source="XxnkFZLl8l21hD6HUk1a-48" target="XxnkFZLl8l21hD6HUk1a-50" edge="1">
          <mxGeometry relative="1" as="geometry" />
        </mxCell>
        <mxCell id="XxnkFZLl8l21hD6HUk1a-48" value="Управление масштабом карты" style="rounded=1;whiteSpace=wrap;html=1;arcSize=22;" parent="1" vertex="1">
          <mxGeometry x="-256" y="770" width="106" height="30" as="geometry" />
        </mxCell>
        <mxCell id="XxnkFZLl8l21hD6HUk1a-50" value="копка &quot;+&quot;" style="rounded=1;whiteSpace=wrap;html=1;arcSize=22;" parent="1" vertex="1">
          <mxGeometry x="-386" y="770" width="106" height="30" as="geometry" />
        </mxCell>
        <mxCell id="XxnkFZLl8l21hD6HUk1a-51" value="копка &quot;-&quot;" style="rounded=1;whiteSpace=wrap;html=1;arcSize=22;" parent="1" vertex="1">
          <mxGeometry x="-386" y="810" width="106" height="30" as="geometry" />
        </mxCell>
        <mxCell id="XxnkFZLl8l21hD6HUk1a-52" value="бегунок увел/уменьш" style="rounded=1;whiteSpace=wrap;html=1;arcSize=22;" parent="1" vertex="1">
          <mxGeometry x="-386" y="850" width="106" height="30" as="geometry" />
        </mxCell>
        <mxCell id="XxnkFZLl8l21hD6HUk1a-59" value="Быстрый" style="rounded=1;whiteSpace=wrap;html=1;" parent="1" vertex="1">
          <mxGeometry x="-580" y="460" width="80" height="20" as="geometry" />
        </mxCell>
        <mxCell id="XxnkFZLl8l21hD6HUk1a-65" value="Свой" style="rounded=1;whiteSpace=wrap;html=1;" parent="1" vertex="1">
          <mxGeometry x="-580" y="485" width="60" height="20" as="geometry" />
        </mxCell>
        <mxCell id="XxnkFZLl8l21hD6HUk1a-66" value="Оптимальный" style="rounded=1;whiteSpace=wrap;html=1;" parent="1" vertex="1">
          <mxGeometry x="-580" y="435" width="90" height="20" as="geometry" />
        </mxCell>
        <mxCell id="XxnkFZLl8l21hD6HUk1a-70" value="Собсвтенный авто" style="rounded=1;whiteSpace=wrap;html=1;" parent="1" vertex="1">
          <mxGeometry x="-710" y="505" width="100" height="30" as="geometry" />
        </mxCell>
        <mxCell id="XxnkFZLl8l21hD6HUk1a-71" value="Пешком" style="rounded=1;whiteSpace=wrap;html=1;" parent="1" vertex="1">
          <mxGeometry x="-670" y="545" width="60" height="20" as="geometry" />
        </mxCell>
        <mxCell id="XxnkFZLl8l21hD6HUk1a-72" value="Такси" style="rounded=1;whiteSpace=wrap;html=1;" parent="1" vertex="1">
          <mxGeometry x="-670" y="570" width="60" height="20" as="geometry" />
        </mxCell>
        <mxCell id="XxnkFZLl8l21hD6HUk1a-73" value="Шеринг велосипедов" style="rounded=1;whiteSpace=wrap;html=1;" parent="1" vertex="1">
          <mxGeometry x="-730" y="595" width="130" height="20" as="geometry" />
        </mxCell>
        <mxCell id="XxnkFZLl8l21hD6HUk1a-74" value="Шеринг самокатов" style="rounded=1;whiteSpace=wrap;html=1;" parent="1" vertex="1">
          <mxGeometry x="-730" y="625" width="130" height="20" as="geometry" />
        </mxCell>
        <mxCell id="XxnkFZLl8l21hD6HUk1a-75" value="Каршеринг" style="rounded=1;whiteSpace=wrap;html=1;" parent="1" vertex="1">
          <mxGeometry x="-670" y="655" width="70" height="30" as="geometry" />
        </mxCell>
        <mxCell id="XxnkFZLl8l21hD6HUk1a-81" style="rounded=0;orthogonalLoop=1;jettySize=auto;html=1;exitX=0;exitY=0.5;exitDx=0;exitDy=0;entryX=1;entryY=0.5;entryDx=0;entryDy=0;" parent="1" source="XxnkFZLl8l21hD6HUk1a-35" target="XxnkFZLl8l21hD6HUk1a-70" edge="1">
          <mxGeometry relative="1" as="geometry">
            <mxPoint x="-600" y="565" as="targetPoint" />
            <mxPoint x="-390" y="520" as="sourcePoint" />
          </mxGeometry>
        </mxCell>
        <mxCell id="XxnkFZLl8l21hD6HUk1a-82" style="rounded=0;orthogonalLoop=1;jettySize=auto;html=1;exitX=0;exitY=0.5;exitDx=0;exitDy=0;entryX=1;entryY=0.5;entryDx=0;entryDy=0;" parent="1" source="XxnkFZLl8l21hD6HUk1a-35" target="XxnkFZLl8l21hD6HUk1a-72" edge="1">
          <mxGeometry relative="1" as="geometry">
            <mxPoint x="-590" y="575" as="targetPoint" />
            <mxPoint x="-380" y="530" as="sourcePoint" />
          </mxGeometry>
        </mxCell>
        <mxCell id="XxnkFZLl8l21hD6HUk1a-83" style="rounded=0;orthogonalLoop=1;jettySize=auto;html=1;exitX=0;exitY=0.5;exitDx=0;exitDy=0;entryX=1;entryY=0.5;entryDx=0;entryDy=0;" parent="1" source="XxnkFZLl8l21hD6HUk1a-35" target="XxnkFZLl8l21hD6HUk1a-73" edge="1">
          <mxGeometry relative="1" as="geometry">
            <mxPoint x="-580" y="585" as="targetPoint" />
            <mxPoint x="-370" y="540" as="sourcePoint" />
          </mxGeometry>
        </mxCell>
        <mxCell id="XxnkFZLl8l21hD6HUk1a-84" style="rounded=0;orthogonalLoop=1;jettySize=auto;html=1;exitX=0;exitY=0.5;exitDx=0;exitDy=0;entryX=1;entryY=0.5;entryDx=0;entryDy=0;" parent="1" source="XxnkFZLl8l21hD6HUk1a-35" target="XxnkFZLl8l21hD6HUk1a-74" edge="1">
          <mxGeometry relative="1" as="geometry">
            <mxPoint x="-570" y="595" as="targetPoint" />
            <mxPoint x="-360" y="550" as="sourcePoint" />
          </mxGeometry>
        </mxCell>
        <mxCell id="XxnkFZLl8l21hD6HUk1a-85" style="rounded=0;orthogonalLoop=1;jettySize=auto;html=1;exitX=0;exitY=0.5;exitDx=0;exitDy=0;entryX=1;entryY=0.5;entryDx=0;entryDy=0;" parent="1" source="XxnkFZLl8l21hD6HUk1a-35" target="XxnkFZLl8l21hD6HUk1a-75" edge="1">
          <mxGeometry relative="1" as="geometry">
            <mxPoint x="-560" y="605" as="targetPoint" />
            <mxPoint x="-350" y="560" as="sourcePoint" />
          </mxGeometry>
        </mxCell>
        <mxCell id="XxnkFZLl8l21hD6HUk1a-86" style="rounded=0;orthogonalLoop=1;jettySize=auto;html=1;exitX=0;exitY=0.5;exitDx=0;exitDy=0;" parent="1" source="XxnkFZLl8l21hD6HUk1a-34" edge="1">
          <mxGeometry relative="1" as="geometry">
            <mxPoint x="-490" y="445" as="targetPoint" />
            <mxPoint x="-340" y="570" as="sourcePoint" />
          </mxGeometry>
        </mxCell>
        <mxCell id="XxnkFZLl8l21hD6HUk1a-87" style="rounded=0;orthogonalLoop=1;jettySize=auto;html=1;exitX=0;exitY=0.5;exitDx=0;exitDy=0;entryX=1;entryY=0.5;entryDx=0;entryDy=0;" parent="1" source="XxnkFZLl8l21hD6HUk1a-34" target="XxnkFZLl8l21hD6HUk1a-65" edge="1">
          <mxGeometry relative="1" as="geometry">
            <mxPoint x="-540" y="625" as="targetPoint" />
            <mxPoint x="-330" y="580" as="sourcePoint" />
          </mxGeometry>
        </mxCell>
        <mxCell id="XxnkFZLl8l21hD6HUk1a-88" style="rounded=0;orthogonalLoop=1;jettySize=auto;html=1;exitX=0;exitY=0.5;exitDx=0;exitDy=0;entryX=1;entryY=0.5;entryDx=0;entryDy=0;" parent="1" source="XxnkFZLl8l21hD6HUk1a-48" target="XxnkFZLl8l21hD6HUk1a-51" edge="1">
          <mxGeometry relative="1" as="geometry">
            <mxPoint x="-370" y="710" as="targetPoint" />
            <mxPoint x="-160" y="665" as="sourcePoint" />
          </mxGeometry>
        </mxCell>
        <mxCell id="XxnkFZLl8l21hD6HUk1a-89" style="rounded=0;orthogonalLoop=1;jettySize=auto;html=1;exitX=0;exitY=0.5;exitDx=0;exitDy=0;entryX=1;entryY=0.5;entryDx=0;entryDy=0;" parent="1" source="XxnkFZLl8l21hD6HUk1a-48" target="XxnkFZLl8l21hD6HUk1a-52" edge="1">
          <mxGeometry relative="1" as="geometry">
            <mxPoint x="-270" y="835" as="targetPoint" />
            <mxPoint x="-246" y="795" as="sourcePoint" />
          </mxGeometry>
        </mxCell>
        <mxCell id="XxnkFZLl8l21hD6HUk1a-90" style="rounded=0;orthogonalLoop=1;jettySize=auto;html=1;entryX=1;entryY=0.5;entryDx=0;entryDy=0;" parent="1" target="XxnkFZLl8l21hD6HUk1a-4" edge="1">
          <mxGeometry relative="1" as="geometry">
            <mxPoint x="-700" y="950" as="targetPoint" />
            <mxPoint x="-440" y="920" as="sourcePoint" />
          </mxGeometry>
        </mxCell>
        <mxCell id="XxnkFZLl8l21hD6HUk1a-92" style="rounded=0;orthogonalLoop=1;jettySize=auto;html=1;exitX=0;exitY=0.5;exitDx=0;exitDy=0;entryX=1;entryY=0.5;entryDx=0;entryDy=0;" parent="1" source="JOR5eb2Kpy74Wpw3OGH0-215" target="XxnkFZLl8l21hD6HUk1a-43" edge="1">
          <mxGeometry relative="1" as="geometry">
            <mxPoint x="-410" y="780" as="targetPoint" />
            <mxPoint x="-250" y="565" as="sourcePoint" />
          </mxGeometry>
        </mxCell>
        <mxCell id="XxnkFZLl8l21hD6HUk1a-93" style="rounded=0;orthogonalLoop=1;jettySize=auto;html=1;entryX=1;entryY=0.5;entryDx=0;entryDy=0;" parent="1" target="XxnkFZLl8l21hD6HUk1a-40" edge="1">
          <mxGeometry relative="1" as="geometry">
            <mxPoint x="-286" y="675" as="targetPoint" />
            <mxPoint x="-270" y="570" as="sourcePoint" />
          </mxGeometry>
        </mxCell>
        <mxCell id="XxnkFZLl8l21hD6HUk1a-94" style="rounded=0;orthogonalLoop=1;jettySize=auto;html=1;entryX=1;entryY=0.5;entryDx=0;entryDy=0;exitX=0;exitY=0.572;exitDx=0;exitDy=0;exitPerimeter=0;" parent="1" target="XxnkFZLl8l21hD6HUk1a-39" edge="1" source="JOR5eb2Kpy74Wpw3OGH0-215">
          <mxGeometry relative="1" as="geometry">
            <mxPoint x="-276" y="685" as="targetPoint" />
            <mxPoint x="-250" y="565" as="sourcePoint" />
          </mxGeometry>
        </mxCell>
        <mxCell id="XxnkFZLl8l21hD6HUk1a-97" style="edgeStyle=none;rounded=0;orthogonalLoop=1;jettySize=auto;html=1;exitX=0;exitY=0.5;exitDx=0;exitDy=0;entryX=1;entryY=0.5;entryDx=0;entryDy=0;" parent="1" source="XxnkFZLl8l21hD6HUk1a-7" target="XxnkFZLl8l21hD6HUk1a-10" edge="1">
          <mxGeometry relative="1" as="geometry">
            <mxPoint x="-150" y="240" as="targetPoint" />
            <mxPoint x="-80" y="290" as="sourcePoint" />
            <Array as="points" />
          </mxGeometry>
        </mxCell>
        <mxCell id="XxnkFZLl8l21hD6HUk1a-98" value="Построение маршрута" style="rounded=1;whiteSpace=wrap;html=1;arcSize=22;" parent="1" vertex="1">
          <mxGeometry x="680" y="410" width="120" height="40" as="geometry" />
        </mxCell>
        <mxCell id="XxnkFZLl8l21hD6HUk1a-99" value="Панель выбора времени" style="rounded=1;whiteSpace=wrap;html=1;arcSize=22;" parent="1" vertex="1">
          <mxGeometry x="827" y="345" width="93" height="40" as="geometry" />
        </mxCell>
        <mxCell id="XxnkFZLl8l21hD6HUk1a-100" value="Панель выбора режима поездки" style="rounded=1;whiteSpace=wrap;html=1;arcSize=22;" parent="1" vertex="1">
          <mxGeometry x="710" y="1140" width="120" height="40" as="geometry" />
        </mxCell>
        <mxCell id="XxnkFZLl8l21hD6HUk1a-102" value="Хедер : Яндекс Маршруты" style="rounded=1;whiteSpace=wrap;html=1;arcSize=22;" parent="1" vertex="1">
          <mxGeometry x="707" y="150" width="120" height="40" as="geometry" />
        </mxCell>
        <mxCell id="JOR5eb2Kpy74Wpw3OGH0-227" style="edgeStyle=orthogonalEdgeStyle;rounded=0;orthogonalLoop=1;jettySize=auto;html=1;exitX=1;exitY=0.5;exitDx=0;exitDy=0;entryX=0;entryY=0.5;entryDx=0;entryDy=0;" edge="1" parent="1" source="XxnkFZLl8l21hD6HUk1a-104" target="JOR5eb2Kpy74Wpw3OGH0-226">
          <mxGeometry relative="1" as="geometry">
            <Array as="points">
              <mxPoint x="770" y="1532" />
            </Array>
          </mxGeometry>
        </mxCell>
        <mxCell id="XxnkFZLl8l21hD6HUk1a-104" value="Карта и элементы" style="rounded=1;whiteSpace=wrap;html=1;arcSize=22;" parent="1" vertex="1">
          <mxGeometry x="650" y="1574.25" width="120" height="40" as="geometry" />
        </mxCell>
        <mxCell id="XxnkFZLl8l21hD6HUk1a-106" style="rounded=0;orthogonalLoop=1;jettySize=auto;html=1;entryX=0;entryY=0.5;entryDx=0;entryDy=0;" parent="1" target="XxnkFZLl8l21hD6HUk1a-99" edge="1">
          <mxGeometry relative="1" as="geometry">
            <mxPoint x="800" y="430" as="sourcePoint" />
            <mxPoint x="890" y="135" as="targetPoint" />
          </mxGeometry>
        </mxCell>
        <mxCell id="XxnkFZLl8l21hD6HUk1a-107" style="rounded=0;orthogonalLoop=1;jettySize=auto;html=1;entryX=0;entryY=0.5;entryDx=0;entryDy=0;" parent="1" target="XxnkFZLl8l21hD6HUk1a-98" edge="1">
          <mxGeometry relative="1" as="geometry">
            <mxPoint x="650" y="380" as="sourcePoint" />
            <mxPoint x="720" y="220" as="targetPoint" />
          </mxGeometry>
        </mxCell>
        <mxCell id="XxnkFZLl8l21hD6HUk1a-108" style="rounded=0;orthogonalLoop=1;jettySize=auto;html=1;entryX=0;entryY=0.5;entryDx=0;entryDy=0;exitX=1;exitY=0.5;exitDx=0;exitDy=0;" parent="1" source="qn3d2HcTWaKksIYHcs9O-5" target="XxnkFZLl8l21hD6HUk1a-100" edge="1">
          <mxGeometry relative="1" as="geometry">
            <mxPoint x="660" y="390" as="sourcePoint" />
            <mxPoint x="720" y="310" as="targetPoint" />
          </mxGeometry>
        </mxCell>
        <mxCell id="XxnkFZLl8l21hD6HUk1a-110" style="rounded=0;orthogonalLoop=1;jettySize=auto;html=1;entryX=0;entryY=0.5;entryDx=0;entryDy=0;exitX=1;exitY=0.5;exitDx=0;exitDy=0;" parent="1" source="qn3d2HcTWaKksIYHcs9O-5" target="XxnkFZLl8l21hD6HUk1a-104" edge="1">
          <mxGeometry relative="1" as="geometry">
            <mxPoint x="660" y="390" as="sourcePoint" />
            <mxPoint x="720" y="500" as="targetPoint" />
          </mxGeometry>
        </mxCell>
        <mxCell id="JOR5eb2Kpy74Wpw3OGH0-221" style="edgeStyle=orthogonalEdgeStyle;rounded=0;orthogonalLoop=1;jettySize=auto;html=1;entryX=0;entryY=0.5;entryDx=0;entryDy=0;" edge="1" parent="1" source="XxnkFZLl8l21hD6HUk1a-112" target="JOR5eb2Kpy74Wpw3OGH0-193">
          <mxGeometry relative="1" as="geometry" />
        </mxCell>
        <mxCell id="XxnkFZLl8l21hD6HUk1a-112" value="&quot;Условия Использования&quot;" style="whiteSpace=wrap;html=1;rounded=1;" parent="1" vertex="1">
          <mxGeometry x="880" y="1610" width="210" height="30" as="geometry" />
        </mxCell>
        <mxCell id="XxnkFZLl8l21hD6HUk1a-115" value="Логотип &quot;Маршруты&quot;&amp;nbsp; клик ведет на главную страницу маршрутов" style="rounded=1;whiteSpace=wrap;html=1;arcSize=22;" parent="1" vertex="1">
          <mxGeometry x="907" y="120" width="193" height="60" as="geometry" />
        </mxCell>
        <mxCell id="XxnkFZLl8l21hD6HUk1a-117" value="Логотип &quot;Яндекс&quot; клик ведет на главную страницу Яндекса" style="rounded=1;whiteSpace=wrap;html=1;arcSize=22;" parent="1" vertex="1">
          <mxGeometry x="907" y="70" width="173" height="40" as="geometry" />
        </mxCell>
        <mxCell id="XxnkFZLl8l21hD6HUk1a-119" value="*Серая зона, не сказано что делает Лого и Маршруты" style="text;html=1;align=center;verticalAlign=middle;resizable=0;points=[];autosize=1;strokeColor=none;fillColor=none;" parent="1" vertex="1">
          <mxGeometry x="830" y="40" width="330" height="30" as="geometry" />
        </mxCell>
        <mxCell id="XxnkFZLl8l21hD6HUk1a-121" value="Поле ввода Часов" style="rounded=1;whiteSpace=wrap;html=1;arcSize=22;" parent="1" vertex="1">
          <mxGeometry x="1077" y="265" width="120" height="40" as="geometry" />
        </mxCell>
        <mxCell id="XxnkFZLl8l21hD6HUk1a-124" value="Поле ввода Минут" style="rounded=1;whiteSpace=wrap;html=1;arcSize=22;" parent="1" vertex="1">
          <mxGeometry x="1077" y="415" width="120" height="40" as="geometry" />
        </mxCell>
        <mxCell id="JOR5eb2Kpy74Wpw3OGH0-13" style="edgeStyle=orthogonalEdgeStyle;rounded=0;orthogonalLoop=1;jettySize=auto;html=1;entryX=0;entryY=0.5;entryDx=0;entryDy=0;" edge="1" parent="1" source="XxnkFZLl8l21hD6HUk1a-129" target="JOR5eb2Kpy74Wpw3OGH0-12">
          <mxGeometry relative="1" as="geometry" />
        </mxCell>
        <mxCell id="XxnkFZLl8l21hD6HUk1a-129" value="только целые числа [0;23]" style="rounded=1;whiteSpace=wrap;html=1;arcSize=22;" parent="1" vertex="1">
          <mxGeometry x="1390" y="235" width="123" height="25" as="geometry" />
        </mxCell>
        <mxCell id="XxnkFZLl8l21hD6HUk1a-130" value="&lt;font color=&quot;#ff3f0f&quot;&gt;при нарушении валидации поле&amp;nbsp;подсвечивается красным, ошибка «Вы ввели некорректное время».&lt;/font&gt;" style="rounded=1;whiteSpace=wrap;html=1;arcSize=22;" parent="1" vertex="1">
          <mxGeometry x="1390" y="270" width="320" height="30" as="geometry" />
        </mxCell>
        <mxCell id="XxnkFZLl8l21hD6HUk1a-137" value="" style="edgeStyle=none;orthogonalLoop=1;jettySize=auto;html=1;rounded=0;entryX=0;entryY=0.5;entryDx=0;entryDy=0;exitX=1;exitY=0.5;exitDx=0;exitDy=0;" parent="1" source="XxnkFZLl8l21hD6HUk1a-99" target="XxnkFZLl8l21hD6HUk1a-121" edge="1">
          <mxGeometry width="100" relative="1" as="geometry">
            <mxPoint x="1000" y="325" as="sourcePoint" />
            <mxPoint x="1070" y="315" as="targetPoint" />
            <Array as="points" />
          </mxGeometry>
        </mxCell>
        <mxCell id="XxnkFZLl8l21hD6HUk1a-138" value="" style="edgeStyle=none;orthogonalLoop=1;jettySize=auto;html=1;rounded=0;exitX=1;exitY=0.5;exitDx=0;exitDy=0;entryX=0;entryY=0.5;entryDx=0;entryDy=0;" parent="1" source="XxnkFZLl8l21hD6HUk1a-99" target="XxnkFZLl8l21hD6HUk1a-124" edge="1">
          <mxGeometry width="100" relative="1" as="geometry">
            <mxPoint x="1000" y="335" as="sourcePoint" />
            <mxPoint x="1087" y="295" as="targetPoint" />
            <Array as="points" />
          </mxGeometry>
        </mxCell>
        <mxCell id="XxnkFZLl8l21hD6HUk1a-139" value="" style="edgeStyle=none;orthogonalLoop=1;jettySize=auto;html=1;rounded=0;exitX=1;exitY=0.5;exitDx=0;exitDy=0;entryX=0;entryY=0.5;entryDx=0;entryDy=0;" parent="1" target="XxnkFZLl8l21hD6HUk1a-117" edge="1">
          <mxGeometry width="100" relative="1" as="geometry">
            <mxPoint x="827" y="170" as="sourcePoint" />
            <mxPoint x="914" y="130" as="targetPoint" />
            <Array as="points" />
          </mxGeometry>
        </mxCell>
        <mxCell id="XxnkFZLl8l21hD6HUk1a-140" value="" style="edgeStyle=none;orthogonalLoop=1;jettySize=auto;html=1;rounded=0;entryX=0;entryY=0.5;entryDx=0;entryDy=0;exitX=1;exitY=0.5;exitDx=0;exitDy=0;" parent="1" source="XxnkFZLl8l21hD6HUk1a-102" target="XxnkFZLl8l21hD6HUk1a-115" edge="1">
          <mxGeometry width="100" relative="1" as="geometry">
            <mxPoint x="830" y="170" as="sourcePoint" />
            <mxPoint x="917" y="115" as="targetPoint" />
            <Array as="points" />
          </mxGeometry>
        </mxCell>
        <mxCell id="JOR5eb2Kpy74Wpw3OGH0-24" value="" style="edgeStyle=orthogonalEdgeStyle;rounded=0;orthogonalLoop=1;jettySize=auto;html=1;" edge="1" parent="1" source="XxnkFZLl8l21hD6HUk1a-144" target="JOR5eb2Kpy74Wpw3OGH0-23">
          <mxGeometry relative="1" as="geometry" />
        </mxCell>
        <mxCell id="XxnkFZLl8l21hD6HUk1a-144" value="авто выставление &quot;0&quot; перед однозначным числом;&lt;br&gt;только целые числа [0;59]" style="rounded=1;whiteSpace=wrap;html=1;arcSize=22;" parent="1" vertex="1">
          <mxGeometry x="1420" y="350" width="211.5" height="45" as="geometry" />
        </mxCell>
        <mxCell id="XxnkFZLl8l21hD6HUk1a-146" value="&lt;font color=&quot;#ff0000&quot;&gt;при нарушении валидации поле&amp;nbsp;подсвечивается красным, ошибка «Вы ввели некорректное время».&lt;/font&gt;" style="rounded=1;whiteSpace=wrap;html=1;arcSize=22;" parent="1" vertex="1">
          <mxGeometry x="1420" y="408.75" width="295.75" height="30" as="geometry" />
        </mxCell>
        <mxCell id="JOR5eb2Kpy74Wpw3OGH0-45" value="" style="edgeStyle=orthogonalEdgeStyle;rounded=0;orthogonalLoop=1;jettySize=auto;html=1;" edge="1" parent="1" source="XxnkFZLl8l21hD6HUk1a-158" target="JOR5eb2Kpy74Wpw3OGH0-43">
          <mxGeometry relative="1" as="geometry" />
        </mxCell>
        <mxCell id="XxnkFZLl8l21hD6HUk1a-158" value="Поле ввода &quot;Откуда&quot;" style="rounded=1;whiteSpace=wrap;html=1;arcSize=22;" parent="1" vertex="1">
          <mxGeometry x="827" y="615" width="120" height="40" as="geometry" />
        </mxCell>
        <mxCell id="JOR5eb2Kpy74Wpw3OGH0-73" value="" style="edgeStyle=orthogonalEdgeStyle;rounded=0;orthogonalLoop=1;jettySize=auto;html=1;" edge="1" parent="1" source="XxnkFZLl8l21hD6HUk1a-168" target="JOR5eb2Kpy74Wpw3OGH0-72">
          <mxGeometry relative="1" as="geometry" />
        </mxCell>
        <mxCell id="XxnkFZLl8l21hD6HUk1a-168" value="Только русские буквы, цифры, пробел, тире, точка, запятая. Длина не более 50 символов. Пробелы до и после адреса удаляются при снятии фокуса." style="rounded=1;whiteSpace=wrap;html=1;arcSize=22;" parent="1" vertex="1">
          <mxGeometry x="1375" y="540" width="280" height="60" as="geometry" />
        </mxCell>
        <mxCell id="XxnkFZLl8l21hD6HUk1a-172" value="&lt;font color=&quot;#ff0000&quot;&gt;При несоблюдении валидации : подсвечивается красным, ошибка &quot;Вы ввели некорректный адрес&quot;.&lt;/font&gt;" style="rounded=1;whiteSpace=wrap;html=1;arcSize=22;" parent="1" vertex="1">
          <mxGeometry x="1375" y="787.5" width="350" height="30" as="geometry" />
        </mxCell>
        <mxCell id="XxnkFZLl8l21hD6HUk1a-188" value="&lt;font color=&quot;#ffb366&quot;&gt;Если поле «Откуда» заполнено некорректно, точка А не отображается.&lt;/font&gt;" style="rounded=1;whiteSpace=wrap;html=1;arcSize=22;" parent="1" vertex="1">
          <mxGeometry x="1740" y="610" width="350" height="30" as="geometry" />
        </mxCell>
        <mxCell id="XxnkFZLl8l21hD6HUk1a-240" style="edgeStyle=orthogonalEdgeStyle;rounded=0;orthogonalLoop=1;jettySize=auto;html=1;exitX=1;exitY=0.5;exitDx=0;exitDy=0;" parent="1" source="XxnkFZLl8l21hD6HUk1a-192" target="XxnkFZLl8l21hD6HUk1a-200" edge="1">
          <mxGeometry relative="1" as="geometry" />
        </mxCell>
        <mxCell id="XxnkFZLl8l21hD6HUk1a-192" value="Оптимальный" style="rounded=1;whiteSpace=wrap;html=1;arcSize=22;fillColor=#f5f5f5;gradientColor=#b3b3b3;strokeColor=#666666;" parent="1" vertex="1">
          <mxGeometry x="897" y="980" width="120" height="25" as="geometry" />
        </mxCell>
        <mxCell id="XxnkFZLl8l21hD6HUk1a-239" style="edgeStyle=orthogonalEdgeStyle;rounded=0;orthogonalLoop=1;jettySize=auto;html=1;exitX=1;exitY=0.5;exitDx=0;exitDy=0;" parent="1" source="XxnkFZLl8l21hD6HUk1a-193" target="XxnkFZLl8l21hD6HUk1a-200" edge="1">
          <mxGeometry relative="1" as="geometry" />
        </mxCell>
        <mxCell id="XxnkFZLl8l21hD6HUk1a-193" value="Быстрый" style="rounded=1;whiteSpace=wrap;html=1;arcSize=22;fillColor=#f5f5f5;strokeColor=#666666;gradientColor=#b3b3b3;" parent="1" vertex="1">
          <mxGeometry x="897" y="1025" width="120" height="20" as="geometry" />
        </mxCell>
        <mxCell id="XxnkFZLl8l21hD6HUk1a-194" value="Свой" style="rounded=1;whiteSpace=wrap;html=1;arcSize=22;fillColor=#dae8fc;gradientColor=#7ea6e0;strokeColor=#6c8ebf;" parent="1" vertex="1">
          <mxGeometry x="907" y="1225" width="120" height="20" as="geometry" />
        </mxCell>
        <mxCell id="XxnkFZLl8l21hD6HUk1a-196" value="" style="edgeStyle=none;orthogonalLoop=1;jettySize=auto;html=1;rounded=0;exitX=1;exitY=0.5;exitDx=0;exitDy=0;entryX=0;entryY=0.5;entryDx=0;entryDy=0;" parent="1" source="XxnkFZLl8l21hD6HUk1a-100" target="XxnkFZLl8l21hD6HUk1a-192" edge="1">
          <mxGeometry width="100" relative="1" as="geometry">
            <mxPoint x="830" y="1050" as="sourcePoint" />
            <mxPoint x="930" y="1050" as="targetPoint" />
            <Array as="points" />
          </mxGeometry>
        </mxCell>
        <mxCell id="XxnkFZLl8l21hD6HUk1a-197" value="" style="edgeStyle=none;orthogonalLoop=1;jettySize=auto;html=1;rounded=0;exitX=1;exitY=0.5;exitDx=0;exitDy=0;entryX=0;entryY=0.25;entryDx=0;entryDy=0;" parent="1" source="XxnkFZLl8l21hD6HUk1a-100" target="XxnkFZLl8l21hD6HUk1a-193" edge="1">
          <mxGeometry width="100" relative="1" as="geometry">
            <mxPoint x="837" y="1070" as="sourcePoint" />
            <mxPoint x="880" y="1038" as="targetPoint" />
            <Array as="points" />
          </mxGeometry>
        </mxCell>
        <mxCell id="XxnkFZLl8l21hD6HUk1a-200" value="система автоматически назначит вид транспорта; построится маршрут; отобразятся время и стоимость поездки. Выбрать транспорт в этих режимах нельзя — панель видов транспорта неактивна." style="rounded=1;whiteSpace=wrap;html=1;arcSize=22;fillColor=#f5f5f5;gradientColor=#b3b3b3;strokeColor=#666666;" parent="1" vertex="1">
          <mxGeometry x="1040" y="1000" width="623" height="30" as="geometry" />
        </mxCell>
        <mxCell id="XxnkFZLl8l21hD6HUk1a-201" value="предоставление&amp;nbsp; следующих видов транспорта" style="rounded=1;whiteSpace=wrap;html=1;arcSize=22;" parent="1" vertex="1">
          <mxGeometry x="1080" y="1225" width="120" height="55" as="geometry" />
        </mxCell>
        <mxCell id="XxnkFZLl8l21hD6HUk1a-205" value="" style="edgeStyle=none;orthogonalLoop=1;jettySize=auto;html=1;rounded=0;exitX=1;exitY=0.5;exitDx=0;exitDy=0;entryX=0;entryY=0.5;entryDx=0;entryDy=0;" parent="1" source="XxnkFZLl8l21hD6HUk1a-98" target="XxnkFZLl8l21hD6HUk1a-158" edge="1">
          <mxGeometry width="100" relative="1" as="geometry">
            <mxPoint x="910" y="625" as="sourcePoint" />
            <mxPoint x="744.5999999999999" y="664.5600000000002" as="targetPoint" />
            <Array as="points" />
          </mxGeometry>
        </mxCell>
        <mxCell id="XxnkFZLl8l21hD6HUk1a-237" value="&lt;font color=&quot;#ff3333&quot;&gt;При несоблюдении валидации : подсвечивается красным, ошибка &quot;Вы ввели некорректный адрес&quot;.&lt;/font&gt;" style="rounded=1;whiteSpace=wrap;html=1;arcSize=22;" parent="1" vertex="1">
          <mxGeometry x="1375" y="610" width="350" height="30" as="geometry" />
        </mxCell>
        <mxCell id="JOR5eb2Kpy74Wpw3OGH0-89" style="edgeStyle=orthogonalEdgeStyle;rounded=0;orthogonalLoop=1;jettySize=auto;html=1;entryX=0;entryY=0.5;entryDx=0;entryDy=0;" edge="1" parent="1" source="XxnkFZLl8l21hD6HUk1a-242" target="JOR5eb2Kpy74Wpw3OGH0-86">
          <mxGeometry relative="1" as="geometry">
            <Array as="points">
              <mxPoint x="1770" y="1176" />
              <mxPoint x="1770" y="1126" />
            </Array>
          </mxGeometry>
        </mxCell>
        <mxCell id="JOR5eb2Kpy74Wpw3OGH0-90" style="edgeStyle=orthogonalEdgeStyle;rounded=0;orthogonalLoop=1;jettySize=auto;html=1;entryX=0;entryY=0.25;entryDx=0;entryDy=0;" edge="1" parent="1" source="XxnkFZLl8l21hD6HUk1a-242" target="JOR5eb2Kpy74Wpw3OGH0-87">
          <mxGeometry relative="1" as="geometry" />
        </mxCell>
        <mxCell id="XxnkFZLl8l21hD6HUk1a-242" value="Собственное авто" style="whiteSpace=wrap;html=1;rounded=1;arcSize=22;" parent="1" vertex="1">
          <mxGeometry x="1650" y="1162.5" width="110" height="27.5" as="geometry" />
        </mxCell>
        <mxCell id="JOR5eb2Kpy74Wpw3OGH0-105" style="edgeStyle=orthogonalEdgeStyle;rounded=0;orthogonalLoop=1;jettySize=auto;html=1;entryX=0;entryY=0.5;entryDx=0;entryDy=0;" edge="1" parent="1" source="XxnkFZLl8l21hD6HUk1a-245" target="JOR5eb2Kpy74Wpw3OGH0-103">
          <mxGeometry relative="1" as="geometry" />
        </mxCell>
        <mxCell id="JOR5eb2Kpy74Wpw3OGH0-106" style="edgeStyle=orthogonalEdgeStyle;rounded=0;orthogonalLoop=1;jettySize=auto;html=1;entryX=0;entryY=0.25;entryDx=0;entryDy=0;" edge="1" parent="1" source="XxnkFZLl8l21hD6HUk1a-245" target="JOR5eb2Kpy74Wpw3OGH0-104">
          <mxGeometry relative="1" as="geometry" />
        </mxCell>
        <mxCell id="XxnkFZLl8l21hD6HUk1a-245" value="пешком" style="whiteSpace=wrap;html=1;rounded=1;arcSize=22;" parent="1" vertex="1">
          <mxGeometry x="1650" y="1243.75" width="110" height="17.5" as="geometry" />
        </mxCell>
        <mxCell id="JOR5eb2Kpy74Wpw3OGH0-132" style="edgeStyle=orthogonalEdgeStyle;rounded=0;orthogonalLoop=1;jettySize=auto;html=1;exitX=1;exitY=0.25;exitDx=0;exitDy=0;entryX=0;entryY=0.5;entryDx=0;entryDy=0;" edge="1" parent="1" source="XxnkFZLl8l21hD6HUk1a-246" target="JOR5eb2Kpy74Wpw3OGH0-120">
          <mxGeometry relative="1" as="geometry" />
        </mxCell>
        <mxCell id="XxnkFZLl8l21hD6HUk1a-246" value="&quot;такси&quot;" style="whiteSpace=wrap;html=1;rounded=1;arcSize=22;fillColor=#dae8fc;gradientColor=#7ea6e0;strokeColor=#6c8ebf;" parent="1" vertex="1">
          <mxGeometry x="1650" y="1329.38" width="110" height="17.5" as="geometry" />
        </mxCell>
        <mxCell id="JOR5eb2Kpy74Wpw3OGH0-153" style="edgeStyle=orthogonalEdgeStyle;rounded=0;orthogonalLoop=1;jettySize=auto;html=1;entryX=0;entryY=0.5;entryDx=0;entryDy=0;" edge="1" parent="1" source="XxnkFZLl8l21hD6HUk1a-247" target="JOR5eb2Kpy74Wpw3OGH0-133">
          <mxGeometry relative="1" as="geometry" />
        </mxCell>
        <mxCell id="JOR5eb2Kpy74Wpw3OGH0-154" style="edgeStyle=orthogonalEdgeStyle;rounded=0;orthogonalLoop=1;jettySize=auto;html=1;entryX=0;entryY=0.5;entryDx=0;entryDy=0;" edge="1" parent="1" source="XxnkFZLl8l21hD6HUk1a-247" target="JOR5eb2Kpy74Wpw3OGH0-134">
          <mxGeometry relative="1" as="geometry" />
        </mxCell>
        <mxCell id="XxnkFZLl8l21hD6HUk1a-247" value="Шеринг велосипедов" style="whiteSpace=wrap;html=1;rounded=1;arcSize=22;" parent="1" vertex="1">
          <mxGeometry x="1650" y="1487.5" width="130" height="27.5" as="geometry" />
        </mxCell>
        <mxCell id="JOR5eb2Kpy74Wpw3OGH0-155" style="edgeStyle=orthogonalEdgeStyle;rounded=0;orthogonalLoop=1;jettySize=auto;html=1;exitX=1;exitY=0.5;exitDx=0;exitDy=0;entryX=0;entryY=0.5;entryDx=0;entryDy=0;" edge="1" parent="1" source="XxnkFZLl8l21hD6HUk1a-248" target="JOR5eb2Kpy74Wpw3OGH0-143">
          <mxGeometry relative="1" as="geometry" />
        </mxCell>
        <mxCell id="JOR5eb2Kpy74Wpw3OGH0-156" style="edgeStyle=orthogonalEdgeStyle;rounded=0;orthogonalLoop=1;jettySize=auto;html=1;entryX=0;entryY=0.5;entryDx=0;entryDy=0;" edge="1" parent="1" source="XxnkFZLl8l21hD6HUk1a-248" target="JOR5eb2Kpy74Wpw3OGH0-144">
          <mxGeometry relative="1" as="geometry" />
        </mxCell>
        <mxCell id="XxnkFZLl8l21hD6HUk1a-248" value="Шеринг самокатов" style="whiteSpace=wrap;html=1;rounded=1;arcSize=22;" parent="1" vertex="1">
          <mxGeometry x="1650" y="1608.75" width="110" height="17.5" as="geometry" />
        </mxCell>
        <mxCell id="JOR5eb2Kpy74Wpw3OGH0-174" style="edgeStyle=orthogonalEdgeStyle;rounded=0;orthogonalLoop=1;jettySize=auto;html=1;entryX=0;entryY=0.75;entryDx=0;entryDy=0;" edge="1" parent="1" source="XxnkFZLl8l21hD6HUk1a-249" target="JOR5eb2Kpy74Wpw3OGH0-161">
          <mxGeometry relative="1" as="geometry" />
        </mxCell>
        <mxCell id="JOR5eb2Kpy74Wpw3OGH0-175" style="edgeStyle=orthogonalEdgeStyle;rounded=0;orthogonalLoop=1;jettySize=auto;html=1;entryX=0;entryY=0.5;entryDx=0;entryDy=0;" edge="1" parent="1" source="XxnkFZLl8l21hD6HUk1a-249" target="JOR5eb2Kpy74Wpw3OGH0-162">
          <mxGeometry relative="1" as="geometry" />
        </mxCell>
        <mxCell id="XxnkFZLl8l21hD6HUk1a-249" value="Каршеринг" style="whiteSpace=wrap;html=1;rounded=1;arcSize=22;" parent="1" vertex="1">
          <mxGeometry x="1650" y="1822.5" width="110" height="17.5" as="geometry" />
        </mxCell>
        <mxCell id="XxnkFZLl8l21hD6HUk1a-250" value="" style="endArrow=classic;html=1;rounded=0;exitX=1;exitY=0.5;exitDx=0;exitDy=0;entryX=0;entryY=0.5;entryDx=0;entryDy=0;" parent="1" source="XxnkFZLl8l21hD6HUk1a-201" target="XxnkFZLl8l21hD6HUk1a-322" edge="1">
          <mxGeometry width="50" height="50" relative="1" as="geometry">
            <mxPoint x="1310" y="1100" as="sourcePoint" />
            <mxPoint x="1260" y="1270" as="targetPoint" />
          </mxGeometry>
        </mxCell>
        <mxCell id="XxnkFZLl8l21hD6HUk1a-261" value="" style="shape=flexArrow;endArrow=classic;html=1;rounded=0;entryX=0;entryY=0.5;entryDx=0;entryDy=0;exitX=0.875;exitY=1.103;exitDx=0;exitDy=0;exitPerimeter=0;fillColor=#cce5ff;strokeColor=#36393d;" parent="1" source="XxnkFZLl8l21hD6HUk1a-100" target="XxnkFZLl8l21hD6HUk1a-194" edge="1">
          <mxGeometry width="50" height="50" relative="1" as="geometry">
            <mxPoint x="820" y="1256.25" as="sourcePoint" />
            <mxPoint x="870" y="1206.25" as="targetPoint" />
          </mxGeometry>
        </mxCell>
        <mxCell id="XxnkFZLl8l21hD6HUk1a-262" value="" style="shape=flexArrow;endArrow=classic;html=1;rounded=0;fillColor=#cce5ff;strokeColor=#36393d;" parent="1" edge="1">
          <mxGeometry width="50" height="50" relative="1" as="geometry">
            <mxPoint x="1030" y="1230.63" as="sourcePoint" />
            <mxPoint x="1080" y="1255.63" as="targetPoint" />
          </mxGeometry>
        </mxCell>
        <mxCell id="JOR5eb2Kpy74Wpw3OGH0-80" style="edgeStyle=orthogonalEdgeStyle;rounded=0;orthogonalLoop=1;jettySize=auto;html=1;entryX=0;entryY=0.5;entryDx=0;entryDy=0;" edge="1" parent="1" source="XxnkFZLl8l21hD6HUk1a-265" target="XxnkFZLl8l21hD6HUk1a-242">
          <mxGeometry relative="1" as="geometry" />
        </mxCell>
        <mxCell id="JOR5eb2Kpy74Wpw3OGH0-81" style="edgeStyle=orthogonalEdgeStyle;rounded=0;orthogonalLoop=1;jettySize=auto;html=1;entryX=0;entryY=0.5;entryDx=0;entryDy=0;" edge="1" parent="1" source="XxnkFZLl8l21hD6HUk1a-265" target="XxnkFZLl8l21hD6HUk1a-245">
          <mxGeometry relative="1" as="geometry" />
        </mxCell>
        <mxCell id="JOR5eb2Kpy74Wpw3OGH0-82" style="edgeStyle=orthogonalEdgeStyle;rounded=0;orthogonalLoop=1;jettySize=auto;html=1;entryX=0;entryY=0.5;entryDx=0;entryDy=0;" edge="1" parent="1" source="XxnkFZLl8l21hD6HUk1a-265" target="XxnkFZLl8l21hD6HUk1a-246">
          <mxGeometry relative="1" as="geometry" />
        </mxCell>
        <mxCell id="JOR5eb2Kpy74Wpw3OGH0-83" style="edgeStyle=orthogonalEdgeStyle;rounded=0;orthogonalLoop=1;jettySize=auto;html=1;entryX=0;entryY=0.5;entryDx=0;entryDy=0;" edge="1" parent="1" source="XxnkFZLl8l21hD6HUk1a-265" target="XxnkFZLl8l21hD6HUk1a-247">
          <mxGeometry relative="1" as="geometry" />
        </mxCell>
        <mxCell id="JOR5eb2Kpy74Wpw3OGH0-84" style="edgeStyle=orthogonalEdgeStyle;rounded=0;orthogonalLoop=1;jettySize=auto;html=1;entryX=0;entryY=0.5;entryDx=0;entryDy=0;" edge="1" parent="1" source="XxnkFZLl8l21hD6HUk1a-265" target="XxnkFZLl8l21hD6HUk1a-248">
          <mxGeometry relative="1" as="geometry" />
        </mxCell>
        <mxCell id="JOR5eb2Kpy74Wpw3OGH0-85" style="edgeStyle=orthogonalEdgeStyle;rounded=0;orthogonalLoop=1;jettySize=auto;html=1;entryX=0;entryY=0.5;entryDx=0;entryDy=0;" edge="1" parent="1" source="XxnkFZLl8l21hD6HUk1a-265" target="XxnkFZLl8l21hD6HUk1a-249">
          <mxGeometry relative="1" as="geometry" />
        </mxCell>
        <mxCell id="XxnkFZLl8l21hD6HUk1a-265" value="панель видов транспорта открыта" style="whiteSpace=wrap;html=1;rounded=1;arcSize=22;" parent="1" vertex="1">
          <mxGeometry x="1280" y="1200" width="230" height="17.5" as="geometry" />
        </mxCell>
        <mxCell id="XxnkFZLl8l21hD6HUk1a-266" value="" style="endArrow=classic;html=1;rounded=0;exitX=1;exitY=0.5;exitDx=0;exitDy=0;entryX=0;entryY=0.5;entryDx=0;entryDy=0;" parent="1" source="XxnkFZLl8l21hD6HUk1a-201" target="XxnkFZLl8l21hD6HUk1a-265" edge="1">
          <mxGeometry width="50" height="50" relative="1" as="geometry">
            <mxPoint x="1210" y="1263" as="sourcePoint" />
            <mxPoint x="1290" y="1241" as="targetPoint" />
          </mxGeometry>
        </mxCell>
        <mxCell id="XxnkFZLl8l21hD6HUk1a-290" value="" style="endArrow=classic;html=1;rounded=0;exitX=0;exitY=0.5;exitDx=0;exitDy=0;" parent="1" source="XxnkFZLl8l21hD6HUk1a-44" edge="1">
          <mxGeometry width="50" height="50" relative="1" as="geometry">
            <mxPoint x="-166" y="870" as="sourcePoint" />
            <mxPoint x="-330" y="910" as="targetPoint" />
          </mxGeometry>
        </mxCell>
        <mxCell id="XxnkFZLl8l21hD6HUk1a-291" value="Точка А с адресом (заданным)" style="rounded=1;whiteSpace=wrap;html=1;arcSize=22;" parent="1" vertex="1">
          <mxGeometry x="-700" y="865" width="206" height="30" as="geometry" />
        </mxCell>
        <mxCell id="XxnkFZLl8l21hD6HUk1a-292" value="Точка Б с адресом (заданным)&amp;nbsp;" style="rounded=1;whiteSpace=wrap;html=1;arcSize=22;" parent="1" vertex="1">
          <mxGeometry x="-700" y="900" width="206" height="30" as="geometry" />
        </mxCell>
        <mxCell id="XxnkFZLl8l21hD6HUk1a-293" value="Кривая фиолетового цвета постороенного маршрута от пункта А к Б&amp;nbsp;" style="rounded=1;whiteSpace=wrap;html=1;arcSize=22;" parent="1" vertex="1">
          <mxGeometry x="-706" y="945" width="216" height="45" as="geometry" />
        </mxCell>
        <mxCell id="XxnkFZLl8l21hD6HUk1a-294" value="Элементы на карте" style="rounded=1;whiteSpace=wrap;html=1;arcSize=22;" parent="1" vertex="1">
          <mxGeometry x="-436" y="900" width="106" height="30" as="geometry" />
        </mxCell>
        <mxCell id="XxnkFZLl8l21hD6HUk1a-295" style="rounded=0;orthogonalLoop=1;jettySize=auto;html=1;exitX=0;exitY=0.5;exitDx=0;exitDy=0;entryX=1;entryY=0.5;entryDx=0;entryDy=0;" parent="1" source="XxnkFZLl8l21hD6HUk1a-294" target="XxnkFZLl8l21hD6HUk1a-291" edge="1">
          <mxGeometry relative="1" as="geometry">
            <mxPoint x="-464" y="935" as="targetPoint" />
            <mxPoint x="-440" y="855" as="sourcePoint" />
          </mxGeometry>
        </mxCell>
        <mxCell id="XxnkFZLl8l21hD6HUk1a-296" style="rounded=0;orthogonalLoop=1;jettySize=auto;html=1;exitX=0;exitY=0.5;exitDx=0;exitDy=0;entryX=1;entryY=0.5;entryDx=0;entryDy=0;" parent="1" source="XxnkFZLl8l21hD6HUk1a-294" target="XxnkFZLl8l21hD6HUk1a-292" edge="1">
          <mxGeometry relative="1" as="geometry">
            <mxPoint x="-484" y="890" as="targetPoint" />
            <mxPoint x="-426" y="855" as="sourcePoint" />
          </mxGeometry>
        </mxCell>
        <mxCell id="XxnkFZLl8l21hD6HUk1a-297" style="rounded=0;orthogonalLoop=1;jettySize=auto;html=1;exitX=0;exitY=0.5;exitDx=0;exitDy=0;entryX=1;entryY=0.5;entryDx=0;entryDy=0;" parent="1" source="XxnkFZLl8l21hD6HUk1a-294" target="XxnkFZLl8l21hD6HUk1a-293" edge="1">
          <mxGeometry relative="1" as="geometry">
            <mxPoint x="-474" y="900" as="targetPoint" />
            <mxPoint x="-416" y="865" as="sourcePoint" />
          </mxGeometry>
        </mxCell>
        <mxCell id="XxnkFZLl8l21hD6HUk1a-310" value="увеличение кнопкой (элементом интерфейса на карте) &quot;+&quot;" style="rounded=1;whiteSpace=wrap;html=1;arcSize=22;" parent="1" vertex="1">
          <mxGeometry x="940" y="1344" width="253" height="36.5" as="geometry" />
        </mxCell>
        <mxCell id="XxnkFZLl8l21hD6HUk1a-313" value="уменьшение кнопкой (элементом интерфейса на карте)&amp;nbsp;&lt;br&gt;&amp;nbsp;&quot;-&quot;" style="rounded=1;whiteSpace=wrap;html=1;arcSize=22;" parent="1" vertex="1">
          <mxGeometry x="940" y="1404.5" width="253" height="46.5" as="geometry" />
        </mxCell>
        <mxCell id="XxnkFZLl8l21hD6HUk1a-314" value="Ползунок - Увеличение/уменьшение колесиком или стрелками на клавиатуре" style="rounded=1;whiteSpace=wrap;html=1;arcSize=22;" parent="1" vertex="1">
          <mxGeometry x="940" y="1458.5" width="223" height="60" as="geometry" />
        </mxCell>
        <mxCell id="XxnkFZLl8l21hD6HUk1a-315" value="" style="endArrow=classic;html=1;rounded=0;exitX=1;exitY=0.5;exitDx=0;exitDy=0;entryX=0;entryY=0.5;entryDx=0;entryDy=0;" parent="1" source="JOR5eb2Kpy74Wpw3OGH0-226" target="XxnkFZLl8l21hD6HUk1a-310" edge="1">
          <mxGeometry width="50" height="50" relative="1" as="geometry">
            <mxPoint x="810" y="1779" as="sourcePoint" />
            <mxPoint x="860" y="1729" as="targetPoint" />
          </mxGeometry>
        </mxCell>
        <mxCell id="XxnkFZLl8l21hD6HUk1a-316" value="" style="endArrow=classic;html=1;rounded=0;entryX=0;entryY=0.5;entryDx=0;entryDy=0;exitX=1;exitY=0.5;exitDx=0;exitDy=0;" parent="1" target="XxnkFZLl8l21hD6HUk1a-313" edge="1" source="JOR5eb2Kpy74Wpw3OGH0-226">
          <mxGeometry width="50" height="50" relative="1" as="geometry">
            <mxPoint x="790" y="1690" as="sourcePoint" />
            <mxPoint x="870" y="1745" as="targetPoint" />
          </mxGeometry>
        </mxCell>
        <mxCell id="XxnkFZLl8l21hD6HUk1a-317" value="" style="endArrow=classic;html=1;rounded=0;entryX=0;entryY=0.5;entryDx=0;entryDy=0;exitX=1.001;exitY=0.38;exitDx=0;exitDy=0;exitPerimeter=0;" parent="1" source="JOR5eb2Kpy74Wpw3OGH0-226" target="XxnkFZLl8l21hD6HUk1a-314" edge="1">
          <mxGeometry width="50" height="50" relative="1" as="geometry">
            <mxPoint x="840" y="1460" as="sourcePoint" />
            <mxPoint x="870" y="1785" as="targetPoint" />
          </mxGeometry>
        </mxCell>
        <mxCell id="XxnkFZLl8l21hD6HUk1a-322" value="Если сменить вид транспорта или поменять значение в любом поле, маршрут перестроится; время и стоимость поездки пересчитается. " style="rounded=1;whiteSpace=wrap;html=1;arcSize=22;" parent="1" vertex="1">
          <mxGeometry x="1210" y="1310" width="310" height="56.25" as="geometry" />
        </mxCell>
        <mxCell id="JOR5eb2Kpy74Wpw3OGH0-11" style="edgeStyle=orthogonalEdgeStyle;rounded=0;orthogonalLoop=1;jettySize=auto;html=1;entryX=0;entryY=0.5;entryDx=0;entryDy=0;" edge="1" parent="1" source="JOR5eb2Kpy74Wpw3OGH0-1" target="XxnkFZLl8l21hD6HUk1a-129">
          <mxGeometry relative="1" as="geometry" />
        </mxCell>
        <mxCell id="JOR5eb2Kpy74Wpw3OGH0-1" value="корректный ввод" style="rounded=1;whiteSpace=wrap;html=1;arcSize=22;" vertex="1" parent="1">
          <mxGeometry x="1220" y="250" width="123" height="20" as="geometry" />
        </mxCell>
        <mxCell id="JOR5eb2Kpy74Wpw3OGH0-10" style="edgeStyle=orthogonalEdgeStyle;rounded=0;orthogonalLoop=1;jettySize=auto;html=1;entryX=0;entryY=0.5;entryDx=0;entryDy=0;" edge="1" parent="1" source="JOR5eb2Kpy74Wpw3OGH0-2" target="XxnkFZLl8l21hD6HUk1a-130">
          <mxGeometry relative="1" as="geometry" />
        </mxCell>
        <mxCell id="JOR5eb2Kpy74Wpw3OGH0-2" value="некорректный ввод" style="rounded=1;whiteSpace=wrap;html=1;arcSize=22;" vertex="1" parent="1">
          <mxGeometry x="1220" y="275" width="123" height="20" as="geometry" />
        </mxCell>
        <mxCell id="JOR5eb2Kpy74Wpw3OGH0-3" value="пустое поле - дефолтное состояние" style="rounded=1;whiteSpace=wrap;html=1;arcSize=22;" vertex="1" parent="1">
          <mxGeometry x="1220" y="298.75" width="123" height="46.25" as="geometry" />
        </mxCell>
        <mxCell id="JOR5eb2Kpy74Wpw3OGH0-19" style="edgeStyle=orthogonalEdgeStyle;rounded=0;orthogonalLoop=1;jettySize=auto;html=1;entryX=0;entryY=0.5;entryDx=0;entryDy=0;" edge="1" parent="1" source="JOR5eb2Kpy74Wpw3OGH0-5" target="XxnkFZLl8l21hD6HUk1a-144">
          <mxGeometry relative="1" as="geometry" />
        </mxCell>
        <mxCell id="JOR5eb2Kpy74Wpw3OGH0-5" value="корректный ввод" style="rounded=1;whiteSpace=wrap;html=1;arcSize=22;" vertex="1" parent="1">
          <mxGeometry x="1220" y="390" width="123" height="20" as="geometry" />
        </mxCell>
        <mxCell id="JOR5eb2Kpy74Wpw3OGH0-18" style="edgeStyle=orthogonalEdgeStyle;rounded=0;orthogonalLoop=1;jettySize=auto;html=1;" edge="1" parent="1" source="JOR5eb2Kpy74Wpw3OGH0-6">
          <mxGeometry relative="1" as="geometry">
            <mxPoint x="1420" y="425" as="targetPoint" />
          </mxGeometry>
        </mxCell>
        <mxCell id="JOR5eb2Kpy74Wpw3OGH0-6" value="некорректный ввод" style="rounded=1;whiteSpace=wrap;html=1;arcSize=22;" vertex="1" parent="1">
          <mxGeometry x="1220" y="415" width="123" height="20" as="geometry" />
        </mxCell>
        <mxCell id="JOR5eb2Kpy74Wpw3OGH0-7" value="пустое поле - дефолтное состояние" style="rounded=1;whiteSpace=wrap;html=1;arcSize=22;" vertex="1" parent="1">
          <mxGeometry x="1220" y="438.75" width="123" height="46.25" as="geometry" />
        </mxCell>
        <mxCell id="JOR5eb2Kpy74Wpw3OGH0-12" value="&lt;font color=&quot;#1cff2b&quot;&gt;отображаются введенные числа&amp;nbsp;&lt;/font&gt;" style="rounded=1;whiteSpace=wrap;html=1;arcSize=22;" vertex="1" parent="1">
          <mxGeometry x="1540" y="215" width="123" height="30" as="geometry" />
        </mxCell>
        <mxCell id="JOR5eb2Kpy74Wpw3OGH0-15" value="" style="edgeStyle=none;orthogonalLoop=1;jettySize=auto;html=1;rounded=0;entryX=0;entryY=0.5;entryDx=0;entryDy=0;exitX=1;exitY=0.5;exitDx=0;exitDy=0;" edge="1" parent="1" target="JOR5eb2Kpy74Wpw3OGH0-1">
          <mxGeometry width="100" relative="1" as="geometry">
            <mxPoint x="1197" y="285" as="sourcePoint" />
            <mxPoint x="1277" y="265" as="targetPoint" />
            <Array as="points" />
          </mxGeometry>
        </mxCell>
        <mxCell id="JOR5eb2Kpy74Wpw3OGH0-16" value="" style="edgeStyle=none;orthogonalLoop=1;jettySize=auto;html=1;rounded=0;entryX=0;entryY=0.5;entryDx=0;entryDy=0;exitX=1;exitY=0.5;exitDx=0;exitDy=0;" edge="1" parent="1" source="XxnkFZLl8l21hD6HUk1a-121" target="JOR5eb2Kpy74Wpw3OGH0-2">
          <mxGeometry width="100" relative="1" as="geometry">
            <mxPoint x="1207" y="295" as="sourcePoint" />
            <mxPoint x="1230" y="270" as="targetPoint" />
            <Array as="points" />
          </mxGeometry>
        </mxCell>
        <mxCell id="JOR5eb2Kpy74Wpw3OGH0-17" value="" style="edgeStyle=none;orthogonalLoop=1;jettySize=auto;html=1;rounded=0;entryX=0;entryY=0.5;entryDx=0;entryDy=0;exitX=1;exitY=0.5;exitDx=0;exitDy=0;" edge="1" parent="1" source="XxnkFZLl8l21hD6HUk1a-121" target="JOR5eb2Kpy74Wpw3OGH0-3">
          <mxGeometry width="100" relative="1" as="geometry">
            <mxPoint x="1217" y="305" as="sourcePoint" />
            <mxPoint x="1240" y="280" as="targetPoint" />
            <Array as="points" />
          </mxGeometry>
        </mxCell>
        <mxCell id="JOR5eb2Kpy74Wpw3OGH0-20" value="" style="edgeStyle=none;orthogonalLoop=1;jettySize=auto;html=1;rounded=0;entryX=0;entryY=0.5;entryDx=0;entryDy=0;exitX=1;exitY=0.5;exitDx=0;exitDy=0;" edge="1" parent="1">
          <mxGeometry width="100" relative="1" as="geometry">
            <mxPoint x="1197" y="429" as="sourcePoint" />
            <mxPoint x="1220" y="404" as="targetPoint" />
            <Array as="points" />
          </mxGeometry>
        </mxCell>
        <mxCell id="JOR5eb2Kpy74Wpw3OGH0-21" value="" style="edgeStyle=none;orthogonalLoop=1;jettySize=auto;html=1;rounded=0;entryX=0;entryY=0.5;entryDx=0;entryDy=0;exitX=1;exitY=0.5;exitDx=0;exitDy=0;" edge="1" parent="1">
          <mxGeometry width="100" relative="1" as="geometry">
            <mxPoint x="1197" y="429" as="sourcePoint" />
            <mxPoint x="1220" y="429" as="targetPoint" />
            <Array as="points" />
          </mxGeometry>
        </mxCell>
        <mxCell id="JOR5eb2Kpy74Wpw3OGH0-22" value="" style="edgeStyle=none;orthogonalLoop=1;jettySize=auto;html=1;rounded=0;entryX=0;entryY=0.5;entryDx=0;entryDy=0;exitX=1;exitY=0.5;exitDx=0;exitDy=0;" edge="1" parent="1">
          <mxGeometry width="100" relative="1" as="geometry">
            <mxPoint x="1197" y="429" as="sourcePoint" />
            <mxPoint x="1220" y="466" as="targetPoint" />
            <Array as="points" />
          </mxGeometry>
        </mxCell>
        <mxCell id="JOR5eb2Kpy74Wpw3OGH0-23" value="&lt;font color=&quot;#1cff2b&quot;&gt;отображаются введенные числа&amp;nbsp;&lt;/font&gt;" style="rounded=1;whiteSpace=wrap;html=1;arcSize=22;" vertex="1" parent="1">
          <mxGeometry x="1657" y="340" width="123" height="30" as="geometry" />
        </mxCell>
        <mxCell id="JOR5eb2Kpy74Wpw3OGH0-33" value="" style="edgeStyle=orthogonalEdgeStyle;rounded=0;orthogonalLoop=1;jettySize=auto;html=1;" edge="1" parent="1" source="JOR5eb2Kpy74Wpw3OGH0-25" target="JOR5eb2Kpy74Wpw3OGH0-32">
          <mxGeometry relative="1" as="geometry" />
        </mxCell>
        <mxCell id="JOR5eb2Kpy74Wpw3OGH0-25" value="Блок управления" style="rounded=1;whiteSpace=wrap;html=1;arcSize=22;" vertex="1" parent="1">
          <mxGeometry x="40" y="360" width="75" height="40" as="geometry" />
        </mxCell>
        <mxCell id="JOR5eb2Kpy74Wpw3OGH0-27" style="edgeStyle=none;rounded=0;orthogonalLoop=1;jettySize=auto;html=1;entryX=1;entryY=0.5;entryDx=0;entryDy=0;exitX=0;exitY=0.5;exitDx=0;exitDy=0;" edge="1" parent="1" source="JOR5eb2Kpy74Wpw3OGH0-32" target="GoWqnwifKlF_Yr-xNYbi-45">
          <mxGeometry relative="1" as="geometry">
            <mxPoint x="-125" y="285" as="targetPoint" />
            <mxPoint x="-90" y="365" as="sourcePoint" />
          </mxGeometry>
        </mxCell>
        <mxCell id="JOR5eb2Kpy74Wpw3OGH0-28" style="edgeStyle=none;rounded=0;orthogonalLoop=1;jettySize=auto;html=1;entryX=1;entryY=0.5;entryDx=0;entryDy=0;exitX=0;exitY=0.5;exitDx=0;exitDy=0;" edge="1" parent="1" source="JOR5eb2Kpy74Wpw3OGH0-32" target="GoWqnwifKlF_Yr-xNYbi-43">
          <mxGeometry relative="1" as="geometry">
            <mxPoint x="-120" y="295" as="targetPoint" />
            <mxPoint x="-90" y="365" as="sourcePoint" />
          </mxGeometry>
        </mxCell>
        <mxCell id="JOR5eb2Kpy74Wpw3OGH0-30" style="edgeStyle=none;rounded=0;orthogonalLoop=1;jettySize=auto;html=1;entryX=1;entryY=0.5;entryDx=0;entryDy=0;exitX=0;exitY=0.5;exitDx=0;exitDy=0;" edge="1" parent="1" source="JOR5eb2Kpy74Wpw3OGH0-32" target="OxW7yi1mNQBKnJ8u3WXz-2">
          <mxGeometry relative="1" as="geometry">
            <mxPoint x="-120" y="385" as="targetPoint" />
            <mxPoint x="-90" y="365" as="sourcePoint" />
          </mxGeometry>
        </mxCell>
        <mxCell id="JOR5eb2Kpy74Wpw3OGH0-31" style="edgeStyle=none;rounded=0;orthogonalLoop=1;jettySize=auto;html=1;entryX=1;entryY=0.5;entryDx=0;entryDy=0;exitX=0;exitY=0.5;exitDx=0;exitDy=0;" edge="1" parent="1" source="JOR5eb2Kpy74Wpw3OGH0-32" target="XxnkFZLl8l21hD6HUk1a-36">
          <mxGeometry relative="1" as="geometry">
            <mxPoint x="-120" y="485" as="targetPoint" />
            <mxPoint x="-90" y="365" as="sourcePoint" />
          </mxGeometry>
        </mxCell>
        <mxCell id="JOR5eb2Kpy74Wpw3OGH0-32" value="Построение маршрута" style="rounded=1;whiteSpace=wrap;html=1;arcSize=22;" vertex="1" parent="1">
          <mxGeometry x="-60" y="360" width="75" height="40" as="geometry" />
        </mxCell>
        <mxCell id="JOR5eb2Kpy74Wpw3OGH0-46" value="" style="edgeStyle=orthogonalEdgeStyle;rounded=0;orthogonalLoop=1;jettySize=auto;html=1;" edge="1" parent="1" source="JOR5eb2Kpy74Wpw3OGH0-39" target="JOR5eb2Kpy74Wpw3OGH0-44">
          <mxGeometry relative="1" as="geometry" />
        </mxCell>
        <mxCell id="JOR5eb2Kpy74Wpw3OGH0-39" value="Поле ввода &quot;Куда&quot;" style="rounded=1;whiteSpace=wrap;html=1;arcSize=22;" vertex="1" parent="1">
          <mxGeometry x="830" y="790" width="120" height="40" as="geometry" />
        </mxCell>
        <mxCell id="JOR5eb2Kpy74Wpw3OGH0-40" value="" style="edgeStyle=none;orthogonalLoop=1;jettySize=auto;html=1;rounded=0;exitX=1;exitY=0.5;exitDx=0;exitDy=0;entryX=0;entryY=0.5;entryDx=0;entryDy=0;" edge="1" parent="1" source="XxnkFZLl8l21hD6HUk1a-98" target="JOR5eb2Kpy74Wpw3OGH0-39">
          <mxGeometry width="100" relative="1" as="geometry">
            <mxPoint x="810" y="440" as="sourcePoint" />
            <mxPoint x="967" y="585" as="targetPoint" />
            <Array as="points" />
          </mxGeometry>
        </mxCell>
        <mxCell id="JOR5eb2Kpy74Wpw3OGH0-43" value="ввод адреса (улица, дом)" style="rounded=1;whiteSpace=wrap;html=1;arcSize=22;" vertex="1" parent="1">
          <mxGeometry x="980" y="615" width="120" height="40" as="geometry" />
        </mxCell>
        <mxCell id="JOR5eb2Kpy74Wpw3OGH0-44" value="ввод адреса (улица, дом)" style="rounded=1;whiteSpace=wrap;html=1;arcSize=22;" vertex="1" parent="1">
          <mxGeometry x="980" y="790" width="120" height="40" as="geometry" />
        </mxCell>
        <mxCell id="JOR5eb2Kpy74Wpw3OGH0-71" style="edgeStyle=orthogonalEdgeStyle;rounded=0;orthogonalLoop=1;jettySize=auto;html=1;" edge="1" parent="1" source="JOR5eb2Kpy74Wpw3OGH0-47" target="XxnkFZLl8l21hD6HUk1a-168">
          <mxGeometry relative="1" as="geometry" />
        </mxCell>
        <mxCell id="JOR5eb2Kpy74Wpw3OGH0-47" value="корректный ввод" style="rounded=1;whiteSpace=wrap;html=1;arcSize=22;" vertex="1" parent="1">
          <mxGeometry x="1137" y="590" width="123" height="20" as="geometry" />
        </mxCell>
        <mxCell id="JOR5eb2Kpy74Wpw3OGH0-67" value="" style="edgeStyle=orthogonalEdgeStyle;rounded=0;orthogonalLoop=1;jettySize=auto;html=1;" edge="1" parent="1" source="JOR5eb2Kpy74Wpw3OGH0-48" target="XxnkFZLl8l21hD6HUk1a-237">
          <mxGeometry relative="1" as="geometry" />
        </mxCell>
        <mxCell id="JOR5eb2Kpy74Wpw3OGH0-48" value="некорректный ввод" style="rounded=1;whiteSpace=wrap;html=1;arcSize=22;" vertex="1" parent="1">
          <mxGeometry x="1137" y="615" width="123" height="20" as="geometry" />
        </mxCell>
        <mxCell id="JOR5eb2Kpy74Wpw3OGH0-49" value="пустое поле - дефолтное состояние" style="rounded=1;whiteSpace=wrap;html=1;arcSize=22;" vertex="1" parent="1">
          <mxGeometry x="1137" y="638.75" width="140" height="36.25" as="geometry" />
        </mxCell>
        <mxCell id="JOR5eb2Kpy74Wpw3OGH0-55" value="" style="endArrow=classic;html=1;rounded=0;exitX=1;exitY=0.5;exitDx=0;exitDy=0;" edge="1" parent="1" source="JOR5eb2Kpy74Wpw3OGH0-43">
          <mxGeometry width="50" height="50" relative="1" as="geometry">
            <mxPoint x="1087" y="650" as="sourcePoint" />
            <mxPoint x="1137" y="600" as="targetPoint" />
          </mxGeometry>
        </mxCell>
        <mxCell id="JOR5eb2Kpy74Wpw3OGH0-56" value="" style="endArrow=classic;html=1;rounded=0;entryX=0;entryY=0.5;entryDx=0;entryDy=0;" edge="1" parent="1" target="JOR5eb2Kpy74Wpw3OGH0-48">
          <mxGeometry width="50" height="50" relative="1" as="geometry">
            <mxPoint x="1100" y="635" as="sourcePoint" />
            <mxPoint x="1147" y="610" as="targetPoint" />
          </mxGeometry>
        </mxCell>
        <mxCell id="JOR5eb2Kpy74Wpw3OGH0-57" value="" style="endArrow=classic;html=1;rounded=0;entryX=0;entryY=0.5;entryDx=0;entryDy=0;" edge="1" parent="1" target="JOR5eb2Kpy74Wpw3OGH0-49">
          <mxGeometry width="50" height="50" relative="1" as="geometry">
            <mxPoint x="1100" y="635" as="sourcePoint" />
            <mxPoint x="1147" y="635" as="targetPoint" />
          </mxGeometry>
        </mxCell>
        <mxCell id="JOR5eb2Kpy74Wpw3OGH0-75" style="edgeStyle=orthogonalEdgeStyle;rounded=0;orthogonalLoop=1;jettySize=auto;html=1;entryX=0;entryY=0.5;entryDx=0;entryDy=0;" edge="1" parent="1" source="JOR5eb2Kpy74Wpw3OGH0-61" target="JOR5eb2Kpy74Wpw3OGH0-74">
          <mxGeometry relative="1" as="geometry" />
        </mxCell>
        <mxCell id="JOR5eb2Kpy74Wpw3OGH0-61" value="корректный ввод" style="rounded=1;whiteSpace=wrap;html=1;arcSize=22;" vertex="1" parent="1">
          <mxGeometry x="1137" y="767.5" width="123" height="20" as="geometry" />
        </mxCell>
        <mxCell id="JOR5eb2Kpy74Wpw3OGH0-68" value="" style="edgeStyle=orthogonalEdgeStyle;rounded=0;orthogonalLoop=1;jettySize=auto;html=1;" edge="1" parent="1" source="JOR5eb2Kpy74Wpw3OGH0-62" target="XxnkFZLl8l21hD6HUk1a-172">
          <mxGeometry relative="1" as="geometry" />
        </mxCell>
        <mxCell id="JOR5eb2Kpy74Wpw3OGH0-62" value="некорректный ввод" style="rounded=1;whiteSpace=wrap;html=1;arcSize=22;" vertex="1" parent="1">
          <mxGeometry x="1137" y="792.5" width="123" height="20" as="geometry" />
        </mxCell>
        <mxCell id="JOR5eb2Kpy74Wpw3OGH0-63" value="пустое поле - дефолтное состояние" style="rounded=1;whiteSpace=wrap;html=1;arcSize=22;" vertex="1" parent="1">
          <mxGeometry x="1137" y="816.25" width="140" height="36.25" as="geometry" />
        </mxCell>
        <mxCell id="JOR5eb2Kpy74Wpw3OGH0-64" value="" style="endArrow=classic;html=1;rounded=0;exitX=1;exitY=0.5;exitDx=0;exitDy=0;" edge="1" parent="1">
          <mxGeometry width="50" height="50" relative="1" as="geometry">
            <mxPoint x="1100" y="812.5" as="sourcePoint" />
            <mxPoint x="1137" y="777.5" as="targetPoint" />
          </mxGeometry>
        </mxCell>
        <mxCell id="JOR5eb2Kpy74Wpw3OGH0-65" value="" style="endArrow=classic;html=1;rounded=0;entryX=0;entryY=0.5;entryDx=0;entryDy=0;" edge="1" parent="1" target="JOR5eb2Kpy74Wpw3OGH0-62">
          <mxGeometry width="50" height="50" relative="1" as="geometry">
            <mxPoint x="1100" y="812.5" as="sourcePoint" />
            <mxPoint x="1147" y="787.5" as="targetPoint" />
          </mxGeometry>
        </mxCell>
        <mxCell id="JOR5eb2Kpy74Wpw3OGH0-66" value="" style="endArrow=classic;html=1;rounded=0;entryX=0;entryY=0.5;entryDx=0;entryDy=0;" edge="1" parent="1" target="JOR5eb2Kpy74Wpw3OGH0-63">
          <mxGeometry width="50" height="50" relative="1" as="geometry">
            <mxPoint x="1100" y="812.5" as="sourcePoint" />
            <mxPoint x="1147" y="812.5" as="targetPoint" />
          </mxGeometry>
        </mxCell>
        <mxCell id="JOR5eb2Kpy74Wpw3OGH0-72" value="&lt;font color=&quot;#0aff0a&quot;&gt;поле адреса заполнено корректно, на карте отображается точка А.&lt;/font&gt;" style="rounded=1;whiteSpace=wrap;html=1;arcSize=22;" vertex="1" parent="1">
          <mxGeometry x="1725" y="555" width="350" height="30" as="geometry" />
        </mxCell>
        <mxCell id="JOR5eb2Kpy74Wpw3OGH0-78" value="" style="edgeStyle=orthogonalEdgeStyle;rounded=0;orthogonalLoop=1;jettySize=auto;html=1;" edge="1" parent="1" source="JOR5eb2Kpy74Wpw3OGH0-74" target="JOR5eb2Kpy74Wpw3OGH0-77">
          <mxGeometry relative="1" as="geometry" />
        </mxCell>
        <mxCell id="JOR5eb2Kpy74Wpw3OGH0-74" value="Только русские буквы, цифры, пробел, тире, точка, запятая. Длина не более 50 символов. Пробелы до и после адреса удаляются при снятии фокуса." style="rounded=1;whiteSpace=wrap;html=1;arcSize=22;" vertex="1" parent="1">
          <mxGeometry x="1375" y="720" width="280" height="60" as="geometry" />
        </mxCell>
        <mxCell id="JOR5eb2Kpy74Wpw3OGH0-76" value="&lt;font color=&quot;#ffb366&quot;&gt;Если поле «Откуда» заполнено некорректно, точка Б не отображается.&lt;/font&gt;" style="rounded=1;whiteSpace=wrap;html=1;arcSize=22;" vertex="1" parent="1">
          <mxGeometry x="1740" y="786.25" width="350" height="30" as="geometry" />
        </mxCell>
        <mxCell id="JOR5eb2Kpy74Wpw3OGH0-77" value="&lt;font color=&quot;#0aff0a&quot;&gt;поле адреса заполнено корректно, на карте отображается точка А.&lt;/font&gt;" style="rounded=1;whiteSpace=wrap;html=1;arcSize=22;" vertex="1" parent="1">
          <mxGeometry x="1725" y="735" width="350" height="30" as="geometry" />
        </mxCell>
        <mxCell id="JOR5eb2Kpy74Wpw3OGH0-93" style="edgeStyle=orthogonalEdgeStyle;rounded=0;orthogonalLoop=1;jettySize=auto;html=1;entryX=0;entryY=0.5;entryDx=0;entryDy=0;" edge="1" parent="1" source="JOR5eb2Kpy74Wpw3OGH0-86" target="JOR5eb2Kpy74Wpw3OGH0-91">
          <mxGeometry relative="1" as="geometry">
            <Array as="points">
              <mxPoint x="1900" y="1126" />
              <mxPoint x="1900" y="1074" />
            </Array>
          </mxGeometry>
        </mxCell>
        <mxCell id="JOR5eb2Kpy74Wpw3OGH0-94" style="edgeStyle=orthogonalEdgeStyle;rounded=0;orthogonalLoop=1;jettySize=auto;html=1;entryX=0;entryY=0.25;entryDx=0;entryDy=0;" edge="1" parent="1" source="JOR5eb2Kpy74Wpw3OGH0-86" target="JOR5eb2Kpy74Wpw3OGH0-92">
          <mxGeometry relative="1" as="geometry" />
        </mxCell>
        <mxCell id="JOR5eb2Kpy74Wpw3OGH0-86" value="Расчет поездки" style="whiteSpace=wrap;html=1;rounded=1;arcSize=22;" vertex="1" parent="1">
          <mxGeometry x="1780" y="1112.5" width="110" height="27.5" as="geometry" />
        </mxCell>
        <mxCell id="JOR5eb2Kpy74Wpw3OGH0-87" value="&lt;font color=&quot;#1cff2b&quot;&gt;Построение маршрута&lt;/font&gt;" style="whiteSpace=wrap;html=1;rounded=1;arcSize=22;" vertex="1" parent="1">
          <mxGeometry x="1780" y="1169" width="110" height="27.5" as="geometry" />
        </mxCell>
        <mxCell id="JOR5eb2Kpy74Wpw3OGH0-96" value="" style="edgeStyle=orthogonalEdgeStyle;rounded=0;orthogonalLoop=1;jettySize=auto;html=1;" edge="1" parent="1" source="JOR5eb2Kpy74Wpw3OGH0-91" target="JOR5eb2Kpy74Wpw3OGH0-95">
          <mxGeometry relative="1" as="geometry" />
        </mxCell>
        <mxCell id="JOR5eb2Kpy74Wpw3OGH0-91" value="Расчет времени" style="whiteSpace=wrap;html=1;rounded=1;arcSize=22;" vertex="1" parent="1">
          <mxGeometry x="1910" y="1060" width="110" height="27.5" as="geometry" />
        </mxCell>
        <mxCell id="JOR5eb2Kpy74Wpw3OGH0-99" style="edgeStyle=orthogonalEdgeStyle;rounded=0;orthogonalLoop=1;jettySize=auto;html=1;" edge="1" parent="1" source="JOR5eb2Kpy74Wpw3OGH0-92" target="JOR5eb2Kpy74Wpw3OGH0-98">
          <mxGeometry relative="1" as="geometry" />
        </mxCell>
        <mxCell id="JOR5eb2Kpy74Wpw3OGH0-92" value="Расчет стоимости" style="whiteSpace=wrap;html=1;rounded=1;arcSize=22;" vertex="1" parent="1">
          <mxGeometry x="1910" y="1120" width="110" height="27.5" as="geometry" />
        </mxCell>
        <mxCell id="JOR5eb2Kpy74Wpw3OGH0-102" style="edgeStyle=orthogonalEdgeStyle;rounded=0;orthogonalLoop=1;jettySize=auto;html=1;exitX=1;exitY=0.5;exitDx=0;exitDy=0;" edge="1" parent="1" source="JOR5eb2Kpy74Wpw3OGH0-95">
          <mxGeometry relative="1" as="geometry">
            <mxPoint x="2200" y="1110" as="targetPoint" />
            <Array as="points">
              <mxPoint x="2210" y="988" />
              <mxPoint x="2210" y="1070" />
              <mxPoint x="2200" y="1070" />
            </Array>
          </mxGeometry>
        </mxCell>
        <mxCell id="JOR5eb2Kpy74Wpw3OGH0-95" value="&lt;div&gt;00:01-08:00	45 км/ч&lt;/div&gt;&lt;div&gt;08:01-12:00&lt;span style=&quot;&quot;&gt;	&lt;/span&gt;30 км/ч&lt;/div&gt;&lt;div&gt;12:01-18:00&lt;span style=&quot;&quot;&gt;	&lt;/span&gt;40 км/ч&lt;/div&gt;&lt;div&gt;18:01-22:00&lt;span style=&quot;&quot;&gt;	&lt;/span&gt;25 км/ч&lt;/div&gt;&lt;div&gt;22:01-00:00&lt;span style=&quot;&quot;&gt;	&lt;/span&gt;45 км/ч&lt;/div&gt;" style="whiteSpace=wrap;html=1;rounded=1;arcSize=22;" vertex="1" parent="1">
          <mxGeometry x="2075" y="945" width="120" height="85" as="geometry" />
        </mxCell>
        <mxCell id="JOR5eb2Kpy74Wpw3OGH0-97" value="&lt;font style=&quot;font-size: 8px;&quot;&gt;исходя из введен времени выставляется&lt;/font&gt;" style="text;html=1;align=center;verticalAlign=middle;resizable=0;points=[];autosize=1;strokeColor=none;fillColor=none;" vertex="1" parent="1">
          <mxGeometry x="2020" y="1030" width="180" height="30" as="geometry" />
        </mxCell>
        <mxCell id="JOR5eb2Kpy74Wpw3OGH0-101" style="edgeStyle=orthogonalEdgeStyle;rounded=0;orthogonalLoop=1;jettySize=auto;html=1;entryX=0;entryY=0.5;entryDx=0;entryDy=0;" edge="1" parent="1" source="JOR5eb2Kpy74Wpw3OGH0-98" target="JOR5eb2Kpy74Wpw3OGH0-100">
          <mxGeometry relative="1" as="geometry" />
        </mxCell>
        <mxCell id="JOR5eb2Kpy74Wpw3OGH0-98" value="20 руб/км" style="whiteSpace=wrap;html=1;rounded=1;arcSize=22;" vertex="1" parent="1">
          <mxGeometry x="2040" y="1120" width="110" height="27.5" as="geometry" />
        </mxCell>
        <mxCell id="JOR5eb2Kpy74Wpw3OGH0-100" value="&lt;font color=&quot;#1cff2b&quot;&gt;вывод результата&amp;nbsp; поездки (время/стоимость)&lt;/font&gt;" style="whiteSpace=wrap;html=1;rounded=1;arcSize=22;" vertex="1" parent="1">
          <mxGeometry x="2200" y="1085" width="140" height="45" as="geometry" />
        </mxCell>
        <mxCell id="JOR5eb2Kpy74Wpw3OGH0-103" value="Расчет поездки" style="whiteSpace=wrap;html=1;rounded=1;arcSize=22;" vertex="1" parent="1">
          <mxGeometry x="1780" y="1210.5" width="110" height="27.5" as="geometry" />
        </mxCell>
        <mxCell id="JOR5eb2Kpy74Wpw3OGH0-104" value="&lt;font color=&quot;#1cff2b&quot;&gt;Построение маршрута&lt;/font&gt;" style="whiteSpace=wrap;html=1;rounded=1;arcSize=22;" vertex="1" parent="1">
          <mxGeometry x="1780" y="1267" width="110" height="27.5" as="geometry" />
        </mxCell>
        <mxCell id="JOR5eb2Kpy74Wpw3OGH0-107" style="edgeStyle=orthogonalEdgeStyle;rounded=0;orthogonalLoop=1;jettySize=auto;html=1;entryX=0;entryY=0.5;entryDx=0;entryDy=0;" edge="1" parent="1" target="JOR5eb2Kpy74Wpw3OGH0-109">
          <mxGeometry relative="1" as="geometry">
            <mxPoint x="1910" y="1230" as="sourcePoint" />
            <Array as="points">
              <mxPoint x="1910" y="1256" />
              <mxPoint x="1910" y="1204" />
            </Array>
          </mxGeometry>
        </mxCell>
        <mxCell id="JOR5eb2Kpy74Wpw3OGH0-108" style="edgeStyle=orthogonalEdgeStyle;rounded=0;orthogonalLoop=1;jettySize=auto;html=1;entryX=0;entryY=0.25;entryDx=0;entryDy=0;" edge="1" parent="1" target="JOR5eb2Kpy74Wpw3OGH0-110" source="JOR5eb2Kpy74Wpw3OGH0-103">
          <mxGeometry relative="1" as="geometry">
            <mxPoint x="1900" y="1256" as="sourcePoint" />
          </mxGeometry>
        </mxCell>
        <mxCell id="JOR5eb2Kpy74Wpw3OGH0-113" style="edgeStyle=orthogonalEdgeStyle;rounded=0;orthogonalLoop=1;jettySize=auto;html=1;" edge="1" parent="1" source="JOR5eb2Kpy74Wpw3OGH0-109" target="JOR5eb2Kpy74Wpw3OGH0-111">
          <mxGeometry relative="1" as="geometry" />
        </mxCell>
        <mxCell id="JOR5eb2Kpy74Wpw3OGH0-109" value="Расчет времени" style="whiteSpace=wrap;html=1;rounded=1;arcSize=22;" vertex="1" parent="1">
          <mxGeometry x="1920" y="1190" width="110" height="27.5" as="geometry" />
        </mxCell>
        <mxCell id="JOR5eb2Kpy74Wpw3OGH0-115" style="edgeStyle=orthogonalEdgeStyle;rounded=0;orthogonalLoop=1;jettySize=auto;html=1;" edge="1" parent="1" source="JOR5eb2Kpy74Wpw3OGH0-110" target="JOR5eb2Kpy74Wpw3OGH0-112">
          <mxGeometry relative="1" as="geometry" />
        </mxCell>
        <mxCell id="JOR5eb2Kpy74Wpw3OGH0-110" value="Расчет стоимости" style="whiteSpace=wrap;html=1;rounded=1;arcSize=22;" vertex="1" parent="1">
          <mxGeometry x="1920" y="1250" width="110" height="27.5" as="geometry" />
        </mxCell>
        <mxCell id="JOR5eb2Kpy74Wpw3OGH0-111" value="сред. скор 4 км/ч" style="whiteSpace=wrap;html=1;rounded=1;arcSize=22;" vertex="1" parent="1">
          <mxGeometry x="2040" y="1190" width="110" height="27.5" as="geometry" />
        </mxCell>
        <mxCell id="JOR5eb2Kpy74Wpw3OGH0-112" value="0 руб." style="whiteSpace=wrap;html=1;rounded=1;arcSize=22;" vertex="1" parent="1">
          <mxGeometry x="2040" y="1250" width="110" height="27.5" as="geometry" />
        </mxCell>
        <mxCell id="JOR5eb2Kpy74Wpw3OGH0-116" style="edgeStyle=orthogonalEdgeStyle;rounded=0;orthogonalLoop=1;jettySize=auto;html=1;entryX=0;entryY=0.5;entryDx=0;entryDy=0;" edge="1" parent="1" target="JOR5eb2Kpy74Wpw3OGH0-120">
          <mxGeometry relative="1" as="geometry">
            <mxPoint x="1930" y="1410" as="sourcePoint" />
            <Array as="points">
              <mxPoint x="1930" y="1411" />
              <mxPoint x="1930" y="1361" />
            </Array>
          </mxGeometry>
        </mxCell>
        <mxCell id="JOR5eb2Kpy74Wpw3OGH0-117" style="edgeStyle=orthogonalEdgeStyle;rounded=0;orthogonalLoop=1;jettySize=auto;html=1;entryX=0;entryY=0.25;entryDx=0;entryDy=0;" edge="1" parent="1" target="JOR5eb2Kpy74Wpw3OGH0-121">
          <mxGeometry relative="1" as="geometry">
            <mxPoint x="1930" y="1411" as="sourcePoint" />
          </mxGeometry>
        </mxCell>
        <mxCell id="JOR5eb2Kpy74Wpw3OGH0-118" style="edgeStyle=orthogonalEdgeStyle;rounded=0;orthogonalLoop=1;jettySize=auto;html=1;entryX=0;entryY=0.5;entryDx=0;entryDy=0;" edge="1" parent="1" source="JOR5eb2Kpy74Wpw3OGH0-120" target="JOR5eb2Kpy74Wpw3OGH0-123">
          <mxGeometry relative="1" as="geometry">
            <Array as="points">
              <mxPoint x="2060" y="1361" />
              <mxPoint x="2060" y="1309" />
            </Array>
          </mxGeometry>
        </mxCell>
        <mxCell id="JOR5eb2Kpy74Wpw3OGH0-119" style="edgeStyle=orthogonalEdgeStyle;rounded=0;orthogonalLoop=1;jettySize=auto;html=1;entryX=0;entryY=0.25;entryDx=0;entryDy=0;" edge="1" parent="1" source="JOR5eb2Kpy74Wpw3OGH0-120" target="JOR5eb2Kpy74Wpw3OGH0-125">
          <mxGeometry relative="1" as="geometry" />
        </mxCell>
        <mxCell id="JOR5eb2Kpy74Wpw3OGH0-120" value="Расчет поездки" style="whiteSpace=wrap;html=1;rounded=1;arcSize=22;" vertex="1" parent="1">
          <mxGeometry x="1940" y="1347.5" width="110" height="27.5" as="geometry" />
        </mxCell>
        <mxCell id="JOR5eb2Kpy74Wpw3OGH0-121" value="&lt;font color=&quot;#1cff2b&quot;&gt;Построение маршрута&lt;/font&gt;" style="whiteSpace=wrap;html=1;rounded=1;arcSize=22;" vertex="1" parent="1">
          <mxGeometry x="1940" y="1404" width="110" height="27.5" as="geometry" />
        </mxCell>
        <mxCell id="JOR5eb2Kpy74Wpw3OGH0-122" value="" style="edgeStyle=orthogonalEdgeStyle;rounded=0;orthogonalLoop=1;jettySize=auto;html=1;" edge="1" parent="1" source="JOR5eb2Kpy74Wpw3OGH0-123" target="JOR5eb2Kpy74Wpw3OGH0-127">
          <mxGeometry relative="1" as="geometry" />
        </mxCell>
        <mxCell id="JOR5eb2Kpy74Wpw3OGH0-123" value="Расчет времени" style="whiteSpace=wrap;html=1;rounded=1;arcSize=22;" vertex="1" parent="1">
          <mxGeometry x="2070" y="1295" width="110" height="27.5" as="geometry" />
        </mxCell>
        <mxCell id="JOR5eb2Kpy74Wpw3OGH0-124" style="edgeStyle=orthogonalEdgeStyle;rounded=0;orthogonalLoop=1;jettySize=auto;html=1;" edge="1" parent="1" source="JOR5eb2Kpy74Wpw3OGH0-125" target="JOR5eb2Kpy74Wpw3OGH0-130">
          <mxGeometry relative="1" as="geometry" />
        </mxCell>
        <mxCell id="JOR5eb2Kpy74Wpw3OGH0-125" value="Расчет стоимости" style="whiteSpace=wrap;html=1;rounded=1;arcSize=22;" vertex="1" parent="1">
          <mxGeometry x="2070" y="1355" width="110" height="27.5" as="geometry" />
        </mxCell>
        <mxCell id="JOR5eb2Kpy74Wpw3OGH0-126" style="edgeStyle=orthogonalEdgeStyle;rounded=0;orthogonalLoop=1;jettySize=auto;html=1;exitX=1;exitY=0.5;exitDx=0;exitDy=0;" edge="1" parent="1" source="JOR5eb2Kpy74Wpw3OGH0-127">
          <mxGeometry relative="1" as="geometry">
            <mxPoint x="2360" y="1345" as="targetPoint" />
            <Array as="points">
              <mxPoint x="2370" y="1223" />
              <mxPoint x="2370" y="1305" />
              <mxPoint x="2360" y="1305" />
            </Array>
          </mxGeometry>
        </mxCell>
        <mxCell id="JOR5eb2Kpy74Wpw3OGH0-127" value="&lt;div&gt;00:01-08:00	50 км/ч&lt;/div&gt;&lt;div&gt;08:01-12:00&lt;span style=&quot;&quot;&gt;	&lt;/span&gt;35 км/ч&lt;/div&gt;&lt;div&gt;12:01-18:00&lt;span style=&quot;&quot;&gt;	&lt;/span&gt;42 км/ч&lt;/div&gt;&lt;div&gt;18:01-22:00&lt;span style=&quot;&quot;&gt;	&lt;/span&gt;30 км/ч&lt;/div&gt;&lt;div&gt;22:01-00:00&lt;span style=&quot;&quot;&gt;	&lt;/span&gt;50 км/ч&lt;/div&gt;" style="whiteSpace=wrap;html=1;rounded=1;arcSize=22;" vertex="1" parent="1">
          <mxGeometry x="2235" y="1180" width="120" height="85" as="geometry" />
        </mxCell>
        <mxCell id="JOR5eb2Kpy74Wpw3OGH0-128" value="&lt;font style=&quot;font-size: 8px;&quot;&gt;исходя из введен времени выставляется&lt;/font&gt;" style="text;html=1;align=center;verticalAlign=middle;resizable=0;points=[];autosize=1;strokeColor=none;fillColor=none;" vertex="1" parent="1">
          <mxGeometry x="2180" y="1265" width="180" height="30" as="geometry" />
        </mxCell>
        <mxCell id="JOR5eb2Kpy74Wpw3OGH0-129" style="edgeStyle=orthogonalEdgeStyle;rounded=0;orthogonalLoop=1;jettySize=auto;html=1;entryX=0;entryY=0.5;entryDx=0;entryDy=0;" edge="1" parent="1" source="JOR5eb2Kpy74Wpw3OGH0-130" target="JOR5eb2Kpy74Wpw3OGH0-131">
          <mxGeometry relative="1" as="geometry" />
        </mxCell>
        <mxCell id="JOR5eb2Kpy74Wpw3OGH0-130" value="11 руб/мин" style="whiteSpace=wrap;html=1;rounded=1;arcSize=22;" vertex="1" parent="1">
          <mxGeometry x="2200" y="1355" width="110" height="27.5" as="geometry" />
        </mxCell>
        <mxCell id="JOR5eb2Kpy74Wpw3OGH0-131" value="вывод результата&amp;nbsp; поездки (время/стоимость)&lt;br&gt;+картинка &quot;такси&quot; + кнопка &quot;Заказать такси&quot;" style="whiteSpace=wrap;html=1;rounded=1;arcSize=22;fillColor=#dae8fc;strokeColor=#6c8ebf;" vertex="1" parent="1">
          <mxGeometry x="2360" y="1320" width="140" height="110" as="geometry" />
        </mxCell>
        <mxCell id="JOR5eb2Kpy74Wpw3OGH0-133" value="Расчет поездки" style="whiteSpace=wrap;html=1;rounded=1;arcSize=22;" vertex="1" parent="1">
          <mxGeometry x="1810" y="1462" width="110" height="27.5" as="geometry" />
        </mxCell>
        <mxCell id="JOR5eb2Kpy74Wpw3OGH0-134" value="&lt;font color=&quot;#1cff2b&quot;&gt;Построение маршрута&lt;/font&gt;" style="whiteSpace=wrap;html=1;rounded=1;arcSize=22;" vertex="1" parent="1">
          <mxGeometry x="1810" y="1518.5" width="110" height="27.5" as="geometry" />
        </mxCell>
        <mxCell id="JOR5eb2Kpy74Wpw3OGH0-135" style="edgeStyle=orthogonalEdgeStyle;rounded=0;orthogonalLoop=1;jettySize=auto;html=1;entryX=0;entryY=0.5;entryDx=0;entryDy=0;" edge="1" parent="1" target="JOR5eb2Kpy74Wpw3OGH0-138">
          <mxGeometry relative="1" as="geometry">
            <mxPoint x="1940" y="1481.5" as="sourcePoint" />
            <Array as="points">
              <mxPoint x="1940" y="1507.5" />
              <mxPoint x="1940" y="1455.5" />
            </Array>
          </mxGeometry>
        </mxCell>
        <mxCell id="JOR5eb2Kpy74Wpw3OGH0-136" style="edgeStyle=orthogonalEdgeStyle;rounded=0;orthogonalLoop=1;jettySize=auto;html=1;entryX=0;entryY=0.25;entryDx=0;entryDy=0;" edge="1" parent="1" source="JOR5eb2Kpy74Wpw3OGH0-133" target="JOR5eb2Kpy74Wpw3OGH0-140">
          <mxGeometry relative="1" as="geometry">
            <mxPoint x="1930" y="1507.5" as="sourcePoint" />
          </mxGeometry>
        </mxCell>
        <mxCell id="JOR5eb2Kpy74Wpw3OGH0-137" style="edgeStyle=orthogonalEdgeStyle;rounded=0;orthogonalLoop=1;jettySize=auto;html=1;" edge="1" parent="1" source="JOR5eb2Kpy74Wpw3OGH0-138" target="JOR5eb2Kpy74Wpw3OGH0-141">
          <mxGeometry relative="1" as="geometry" />
        </mxCell>
        <mxCell id="JOR5eb2Kpy74Wpw3OGH0-138" value="Расчет времени" style="whiteSpace=wrap;html=1;rounded=1;arcSize=22;" vertex="1" parent="1">
          <mxGeometry x="1950" y="1441.5" width="110" height="27.5" as="geometry" />
        </mxCell>
        <mxCell id="JOR5eb2Kpy74Wpw3OGH0-139" style="edgeStyle=orthogonalEdgeStyle;rounded=0;orthogonalLoop=1;jettySize=auto;html=1;" edge="1" parent="1" source="JOR5eb2Kpy74Wpw3OGH0-140" target="JOR5eb2Kpy74Wpw3OGH0-142">
          <mxGeometry relative="1" as="geometry" />
        </mxCell>
        <mxCell id="JOR5eb2Kpy74Wpw3OGH0-140" value="Расчет стоимости" style="whiteSpace=wrap;html=1;rounded=1;arcSize=22;" vertex="1" parent="1">
          <mxGeometry x="1950" y="1501.5" width="110" height="27.5" as="geometry" />
        </mxCell>
        <mxCell id="JOR5eb2Kpy74Wpw3OGH0-141" value="сред. скор 12 км/ч" style="whiteSpace=wrap;html=1;rounded=1;arcSize=22;" vertex="1" parent="1">
          <mxGeometry x="2070" y="1441.5" width="110" height="27.5" as="geometry" />
        </mxCell>
        <mxCell id="JOR5eb2Kpy74Wpw3OGH0-142" value="3 руб/км" style="whiteSpace=wrap;html=1;rounded=1;arcSize=22;" vertex="1" parent="1">
          <mxGeometry x="2070" y="1501.5" width="110" height="27.5" as="geometry" />
        </mxCell>
        <mxCell id="JOR5eb2Kpy74Wpw3OGH0-143" value="Расчет поездки" style="whiteSpace=wrap;html=1;rounded=1;arcSize=22;" vertex="1" parent="1">
          <mxGeometry x="1810" y="1580.5" width="110" height="27.5" as="geometry" />
        </mxCell>
        <mxCell id="JOR5eb2Kpy74Wpw3OGH0-144" value="&lt;font color=&quot;#1cff2b&quot;&gt;Построение маршрута&lt;/font&gt;" style="whiteSpace=wrap;html=1;rounded=1;arcSize=22;" vertex="1" parent="1">
          <mxGeometry x="1810" y="1637" width="110" height="27.5" as="geometry" />
        </mxCell>
        <mxCell id="JOR5eb2Kpy74Wpw3OGH0-145" style="edgeStyle=orthogonalEdgeStyle;rounded=0;orthogonalLoop=1;jettySize=auto;html=1;entryX=0;entryY=0.5;entryDx=0;entryDy=0;" edge="1" parent="1" target="JOR5eb2Kpy74Wpw3OGH0-148">
          <mxGeometry relative="1" as="geometry">
            <mxPoint x="1940" y="1600" as="sourcePoint" />
            <Array as="points">
              <mxPoint x="1940" y="1626" />
              <mxPoint x="1940" y="1574" />
            </Array>
          </mxGeometry>
        </mxCell>
        <mxCell id="JOR5eb2Kpy74Wpw3OGH0-146" style="edgeStyle=orthogonalEdgeStyle;rounded=0;orthogonalLoop=1;jettySize=auto;html=1;entryX=0;entryY=0.25;entryDx=0;entryDy=0;" edge="1" parent="1" source="JOR5eb2Kpy74Wpw3OGH0-143" target="JOR5eb2Kpy74Wpw3OGH0-150">
          <mxGeometry relative="1" as="geometry">
            <mxPoint x="1930" y="1626" as="sourcePoint" />
          </mxGeometry>
        </mxCell>
        <mxCell id="JOR5eb2Kpy74Wpw3OGH0-147" style="edgeStyle=orthogonalEdgeStyle;rounded=0;orthogonalLoop=1;jettySize=auto;html=1;" edge="1" parent="1" source="JOR5eb2Kpy74Wpw3OGH0-148" target="JOR5eb2Kpy74Wpw3OGH0-151">
          <mxGeometry relative="1" as="geometry" />
        </mxCell>
        <mxCell id="JOR5eb2Kpy74Wpw3OGH0-148" value="Расчет времени" style="whiteSpace=wrap;html=1;rounded=1;arcSize=22;" vertex="1" parent="1">
          <mxGeometry x="1950" y="1560" width="110" height="27.5" as="geometry" />
        </mxCell>
        <mxCell id="JOR5eb2Kpy74Wpw3OGH0-149" style="edgeStyle=orthogonalEdgeStyle;rounded=0;orthogonalLoop=1;jettySize=auto;html=1;" edge="1" parent="1" source="JOR5eb2Kpy74Wpw3OGH0-150" target="JOR5eb2Kpy74Wpw3OGH0-152">
          <mxGeometry relative="1" as="geometry" />
        </mxCell>
        <mxCell id="JOR5eb2Kpy74Wpw3OGH0-150" value="Расчет стоимости" style="whiteSpace=wrap;html=1;rounded=1;arcSize=22;" vertex="1" parent="1">
          <mxGeometry x="1950" y="1620" width="110" height="27.5" as="geometry" />
        </mxCell>
        <mxCell id="JOR5eb2Kpy74Wpw3OGH0-151" value="сред. скор 10 км/ч" style="whiteSpace=wrap;html=1;rounded=1;arcSize=22;" vertex="1" parent="1">
          <mxGeometry x="2070" y="1560" width="110" height="27.5" as="geometry" />
        </mxCell>
        <mxCell id="JOR5eb2Kpy74Wpw3OGH0-152" value="5 руб/км" style="whiteSpace=wrap;html=1;rounded=1;arcSize=22;" vertex="1" parent="1">
          <mxGeometry x="2070" y="1620" width="110" height="27.5" as="geometry" />
        </mxCell>
        <mxCell id="JOR5eb2Kpy74Wpw3OGH0-159" style="edgeStyle=orthogonalEdgeStyle;rounded=0;orthogonalLoop=1;jettySize=auto;html=1;entryX=0;entryY=0.5;entryDx=0;entryDy=0;" edge="1" parent="1" source="JOR5eb2Kpy74Wpw3OGH0-161" target="JOR5eb2Kpy74Wpw3OGH0-164">
          <mxGeometry relative="1" as="geometry">
            <Array as="points">
              <mxPoint x="2041" y="1801" />
              <mxPoint x="2041" y="1749" />
            </Array>
          </mxGeometry>
        </mxCell>
        <mxCell id="JOR5eb2Kpy74Wpw3OGH0-160" style="edgeStyle=orthogonalEdgeStyle;rounded=0;orthogonalLoop=1;jettySize=auto;html=1;entryX=0;entryY=0.25;entryDx=0;entryDy=0;" edge="1" parent="1" source="JOR5eb2Kpy74Wpw3OGH0-161" target="JOR5eb2Kpy74Wpw3OGH0-166">
          <mxGeometry relative="1" as="geometry" />
        </mxCell>
        <mxCell id="JOR5eb2Kpy74Wpw3OGH0-161" value="Расчет поездки" style="whiteSpace=wrap;html=1;rounded=1;arcSize=22;" vertex="1" parent="1">
          <mxGeometry x="1921" y="1787.5" width="110" height="27.5" as="geometry" />
        </mxCell>
        <mxCell id="JOR5eb2Kpy74Wpw3OGH0-162" value="&lt;font color=&quot;#1cff2b&quot;&gt;Построение маршрута&lt;/font&gt;" style="whiteSpace=wrap;html=1;rounded=1;arcSize=22;" vertex="1" parent="1">
          <mxGeometry x="1921" y="1844" width="110" height="27.5" as="geometry" />
        </mxCell>
        <mxCell id="JOR5eb2Kpy74Wpw3OGH0-163" value="" style="edgeStyle=orthogonalEdgeStyle;rounded=0;orthogonalLoop=1;jettySize=auto;html=1;" edge="1" parent="1" source="JOR5eb2Kpy74Wpw3OGH0-164" target="JOR5eb2Kpy74Wpw3OGH0-168">
          <mxGeometry relative="1" as="geometry" />
        </mxCell>
        <mxCell id="JOR5eb2Kpy74Wpw3OGH0-164" value="Расчет времени" style="whiteSpace=wrap;html=1;rounded=1;arcSize=22;" vertex="1" parent="1">
          <mxGeometry x="2051" y="1735" width="110" height="27.5" as="geometry" />
        </mxCell>
        <mxCell id="JOR5eb2Kpy74Wpw3OGH0-165" style="edgeStyle=orthogonalEdgeStyle;rounded=0;orthogonalLoop=1;jettySize=auto;html=1;" edge="1" parent="1" source="JOR5eb2Kpy74Wpw3OGH0-166" target="JOR5eb2Kpy74Wpw3OGH0-171">
          <mxGeometry relative="1" as="geometry" />
        </mxCell>
        <mxCell id="JOR5eb2Kpy74Wpw3OGH0-166" value="Расчет стоимости" style="whiteSpace=wrap;html=1;rounded=1;arcSize=22;" vertex="1" parent="1">
          <mxGeometry x="2051" y="1795" width="110" height="27.5" as="geometry" />
        </mxCell>
        <mxCell id="JOR5eb2Kpy74Wpw3OGH0-167" style="edgeStyle=orthogonalEdgeStyle;rounded=0;orthogonalLoop=1;jettySize=auto;html=1;exitX=1;exitY=0.5;exitDx=0;exitDy=0;" edge="1" parent="1" source="JOR5eb2Kpy74Wpw3OGH0-168">
          <mxGeometry relative="1" as="geometry">
            <mxPoint x="2341" y="1785" as="targetPoint" />
            <Array as="points">
              <mxPoint x="2351" y="1663" />
              <mxPoint x="2351" y="1745" />
              <mxPoint x="2341" y="1745" />
            </Array>
          </mxGeometry>
        </mxCell>
        <mxCell id="JOR5eb2Kpy74Wpw3OGH0-168" value="&lt;div&gt;00:01-08:00	45 км/ч&lt;/div&gt;&lt;div&gt;08:01-12:00&lt;span style=&quot;&quot;&gt;	&lt;/span&gt;30 км/ч&lt;/div&gt;&lt;div&gt;12:01-18:00&lt;span style=&quot;&quot;&gt;	&lt;/span&gt;40 км/ч&lt;/div&gt;&lt;div&gt;18:01-22:00&lt;span style=&quot;&quot;&gt;	&lt;/span&gt;25 км/ч&lt;/div&gt;&lt;div&gt;22:01-00:00&lt;span style=&quot;&quot;&gt;	&lt;/span&gt;45 км/ч&lt;/div&gt;" style="whiteSpace=wrap;html=1;rounded=1;arcSize=22;" vertex="1" parent="1">
          <mxGeometry x="2216" y="1620" width="120" height="85" as="geometry" />
        </mxCell>
        <mxCell id="JOR5eb2Kpy74Wpw3OGH0-169" value="&lt;font style=&quot;font-size: 8px;&quot;&gt;исходя из введен времени выставляется&lt;/font&gt;" style="text;html=1;align=center;verticalAlign=middle;resizable=0;points=[];autosize=1;strokeColor=none;fillColor=none;" vertex="1" parent="1">
          <mxGeometry x="2161" y="1705" width="180" height="30" as="geometry" />
        </mxCell>
        <mxCell id="JOR5eb2Kpy74Wpw3OGH0-170" style="edgeStyle=orthogonalEdgeStyle;rounded=0;orthogonalLoop=1;jettySize=auto;html=1;entryX=0;entryY=0.5;entryDx=0;entryDy=0;" edge="1" parent="1" source="JOR5eb2Kpy74Wpw3OGH0-171" target="JOR5eb2Kpy74Wpw3OGH0-172">
          <mxGeometry relative="1" as="geometry" />
        </mxCell>
        <mxCell id="JOR5eb2Kpy74Wpw3OGH0-171" value="9 руб/мин" style="whiteSpace=wrap;html=1;rounded=1;arcSize=22;" vertex="1" parent="1">
          <mxGeometry x="2181" y="1795" width="110" height="27.5" as="geometry" />
        </mxCell>
        <mxCell id="JOR5eb2Kpy74Wpw3OGH0-172" value="&lt;font color=&quot;#1cff2b&quot;&gt;вывод результата&amp;nbsp; поездки (время/стоимость)&lt;/font&gt;" style="whiteSpace=wrap;html=1;rounded=1;arcSize=22;" vertex="1" parent="1">
          <mxGeometry x="2341" y="1760" width="140" height="45" as="geometry" />
        </mxCell>
        <mxCell id="JOR5eb2Kpy74Wpw3OGH0-229" value="" style="edgeStyle=orthogonalEdgeStyle;rounded=0;orthogonalLoop=1;jettySize=auto;html=1;" edge="1" parent="1" source="JOR5eb2Kpy74Wpw3OGH0-176" target="JOR5eb2Kpy74Wpw3OGH0-228">
          <mxGeometry relative="1" as="geometry" />
        </mxCell>
        <mxCell id="JOR5eb2Kpy74Wpw3OGH0-176" value="Схема маршрута" style="rounded=1;whiteSpace=wrap;html=1;arcSize=22;" vertex="1" parent="1">
          <mxGeometry x="600" y="1940" width="120" height="40" as="geometry" />
        </mxCell>
        <mxCell id="JOR5eb2Kpy74Wpw3OGH0-177" value="Построение точки А" style="rounded=1;whiteSpace=wrap;html=1;arcSize=22;" vertex="1" parent="1">
          <mxGeometry x="947.5" y="1865.75" width="120" height="40" as="geometry" />
        </mxCell>
        <mxCell id="JOR5eb2Kpy74Wpw3OGH0-178" value="Построение точки Б" style="rounded=1;whiteSpace=wrap;html=1;arcSize=22;" vertex="1" parent="1">
          <mxGeometry x="947" y="1914.25" width="120" height="40" as="geometry" />
        </mxCell>
        <mxCell id="JOR5eb2Kpy74Wpw3OGH0-179" value="Кривая от А к Б фиолетового цвета" style="rounded=1;whiteSpace=wrap;html=1;arcSize=22;" vertex="1" parent="1">
          <mxGeometry x="947" y="1964.25" width="120" height="40" as="geometry" />
        </mxCell>
        <mxCell id="JOR5eb2Kpy74Wpw3OGH0-180" value="Варианты маршрутов (1 или 2)&amp;nbsp;&lt;br&gt;отталкиваясь от оракулов яндекса, на выбор пара схем проездов до 1 адреса&amp;nbsp;" style="rounded=1;whiteSpace=wrap;html=1;arcSize=22;" vertex="1" parent="1">
          <mxGeometry x="947.5" y="2014.25" width="272.5" height="65.75" as="geometry" />
        </mxCell>
        <mxCell id="JOR5eb2Kpy74Wpw3OGH0-185" style="rounded=0;orthogonalLoop=1;jettySize=auto;html=1;entryX=0;entryY=0.5;entryDx=0;entryDy=0;" edge="1" parent="1" target="JOR5eb2Kpy74Wpw3OGH0-176">
          <mxGeometry relative="1" as="geometry">
            <mxPoint x="650" y="370" as="sourcePoint" />
            <mxPoint x="690" y="1790" as="targetPoint" />
          </mxGeometry>
        </mxCell>
        <mxCell id="JOR5eb2Kpy74Wpw3OGH0-191" value="брендинг яндекс(с)" style="rounded=1;whiteSpace=wrap;html=1;" vertex="1" parent="1">
          <mxGeometry x="-684" y="1005" width="180" height="40" as="geometry" />
        </mxCell>
        <mxCell id="JOR5eb2Kpy74Wpw3OGH0-192" style="rounded=0;orthogonalLoop=1;jettySize=auto;html=1;entryX=1;entryY=0.5;entryDx=0;entryDy=0;" edge="1" parent="1" target="JOR5eb2Kpy74Wpw3OGH0-191">
          <mxGeometry relative="1" as="geometry">
            <mxPoint x="-530" y="1135" as="targetPoint" />
            <mxPoint x="-440" y="920" as="sourcePoint" />
          </mxGeometry>
        </mxCell>
        <mxCell id="JOR5eb2Kpy74Wpw3OGH0-193" value="Элемент интерфейса &quot;Ссылка&quot; перехода на другую страницу" style="rounded=1;whiteSpace=wrap;html=1;arcSize=22;" vertex="1" parent="1">
          <mxGeometry x="1137" y="1574.25" width="120" height="75" as="geometry" />
        </mxCell>
        <mxCell id="JOR5eb2Kpy74Wpw3OGH0-223" style="edgeStyle=orthogonalEdgeStyle;rounded=0;orthogonalLoop=1;jettySize=auto;html=1;exitX=1;exitY=0.5;exitDx=0;exitDy=0;entryX=0;entryY=0.5;entryDx=0;entryDy=0;" edge="1" parent="1" source="JOR5eb2Kpy74Wpw3OGH0-200" target="JOR5eb2Kpy74Wpw3OGH0-222">
          <mxGeometry relative="1" as="geometry" />
        </mxCell>
        <mxCell id="JOR5eb2Kpy74Wpw3OGH0-200" value="брендинг яндекс(с)" style="rounded=1;whiteSpace=wrap;html=1;" vertex="1" parent="1">
          <mxGeometry x="857" y="1715" width="120" height="40" as="geometry" />
        </mxCell>
        <mxCell id="JOR5eb2Kpy74Wpw3OGH0-207" value="" style="endArrow=classic;html=1;rounded=0;entryX=0;entryY=0.5;entryDx=0;entryDy=0;exitX=1;exitY=0.5;exitDx=0;exitDy=0;" edge="1" parent="1" source="XxnkFZLl8l21hD6HUk1a-104" target="XxnkFZLl8l21hD6HUk1a-112">
          <mxGeometry width="50" height="50" relative="1" as="geometry">
            <mxPoint x="780" y="1604" as="sourcePoint" />
            <mxPoint x="877" y="1554" as="targetPoint" />
          </mxGeometry>
        </mxCell>
        <mxCell id="JOR5eb2Kpy74Wpw3OGH0-208" value="" style="endArrow=classic;html=1;rounded=0;entryX=0;entryY=0.5;entryDx=0;entryDy=0;exitX=1;exitY=0.5;exitDx=0;exitDy=0;" edge="1" parent="1" source="XxnkFZLl8l21hD6HUk1a-104" target="JOR5eb2Kpy74Wpw3OGH0-200">
          <mxGeometry width="50" height="50" relative="1" as="geometry">
            <mxPoint x="770" y="1590" as="sourcePoint" />
            <mxPoint x="890" y="1635" as="targetPoint" />
          </mxGeometry>
        </mxCell>
        <mxCell id="JOR5eb2Kpy74Wpw3OGH0-209" value="Время в пути" style="rounded=1;whiteSpace=wrap;html=1;arcSize=22;fillColor=#d5e8d4;strokeColor=#82b366;" vertex="1" parent="1">
          <mxGeometry x="-426" y="660" width="120" height="25" as="geometry" />
        </mxCell>
        <mxCell id="JOR5eb2Kpy74Wpw3OGH0-216" value="" style="rounded=0;orthogonalLoop=1;jettySize=auto;html=1;entryX=1;entryY=0.5;entryDx=0;entryDy=0;" edge="1" parent="1" target="JOR5eb2Kpy74Wpw3OGH0-215">
          <mxGeometry relative="1" as="geometry">
            <mxPoint x="-296" y="565" as="targetPoint" />
            <mxPoint x="-250" y="565" as="sourcePoint" />
          </mxGeometry>
        </mxCell>
        <mxCell id="JOR5eb2Kpy74Wpw3OGH0-215" value="Панель вывода информац" style="rounded=1;whiteSpace=wrap;html=1;arcSize=22;fillColor=#d5e8d4;strokeColor=#82b366;" vertex="1" parent="1">
          <mxGeometry x="-270" y="545" width="70" height="40" as="geometry" />
        </mxCell>
        <mxCell id="JOR5eb2Kpy74Wpw3OGH0-222" value="&quot;копирайт&quot; статичный элемент(ничего не делает)" style="rounded=1;whiteSpace=wrap;html=1;arcSize=22;" vertex="1" parent="1">
          <mxGeometry x="1010" y="1697.5" width="120" height="75" as="geometry" />
        </mxCell>
        <mxCell id="JOR5eb2Kpy74Wpw3OGH0-226" value="Панель масштабирования" style="rounded=1;whiteSpace=wrap;html=1;" vertex="1" parent="1">
          <mxGeometry x="797" y="1512.25" width="110" height="40" as="geometry" />
        </mxCell>
        <mxCell id="JOR5eb2Kpy74Wpw3OGH0-228" value="при валидации полей выше и выбора режима и вида транспорта:" style="whiteSpace=wrap;html=1;rounded=1;arcSize=22;" vertex="1" parent="1">
          <mxGeometry x="760" y="1930" width="120" height="60" as="geometry" />
        </mxCell>
        <mxCell id="JOR5eb2Kpy74Wpw3OGH0-231" value="" style="endArrow=classic;html=1;rounded=0;exitX=1;exitY=0.5;exitDx=0;exitDy=0;entryX=0;entryY=0.5;entryDx=0;entryDy=0;" edge="1" parent="1" source="JOR5eb2Kpy74Wpw3OGH0-228" target="JOR5eb2Kpy74Wpw3OGH0-177">
          <mxGeometry width="50" height="50" relative="1" as="geometry">
            <mxPoint x="780" y="1670" as="sourcePoint" />
            <mxPoint x="830" y="1620" as="targetPoint" />
          </mxGeometry>
        </mxCell>
        <mxCell id="JOR5eb2Kpy74Wpw3OGH0-232" value="" style="endArrow=classic;html=1;rounded=0;exitX=1;exitY=0.5;exitDx=0;exitDy=0;entryX=0;entryY=0.5;entryDx=0;entryDy=0;" edge="1" parent="1" source="JOR5eb2Kpy74Wpw3OGH0-228" target="JOR5eb2Kpy74Wpw3OGH0-178">
          <mxGeometry width="50" height="50" relative="1" as="geometry">
            <mxPoint x="890" y="1970" as="sourcePoint" />
            <mxPoint x="958" y="1896" as="targetPoint" />
          </mxGeometry>
        </mxCell>
        <mxCell id="JOR5eb2Kpy74Wpw3OGH0-233" value="" style="endArrow=classic;html=1;rounded=0;exitX=1;exitY=0.5;exitDx=0;exitDy=0;entryX=0;entryY=0.5;entryDx=0;entryDy=0;" edge="1" parent="1" source="JOR5eb2Kpy74Wpw3OGH0-228" target="JOR5eb2Kpy74Wpw3OGH0-179">
          <mxGeometry width="50" height="50" relative="1" as="geometry">
            <mxPoint x="890" y="1970" as="sourcePoint" />
            <mxPoint x="957" y="1944" as="targetPoint" />
          </mxGeometry>
        </mxCell>
        <mxCell id="JOR5eb2Kpy74Wpw3OGH0-234" value="" style="endArrow=classic;html=1;rounded=0;exitX=1;exitY=0.5;exitDx=0;exitDy=0;entryX=0;entryY=0.25;entryDx=0;entryDy=0;" edge="1" parent="1" source="JOR5eb2Kpy74Wpw3OGH0-228" target="JOR5eb2Kpy74Wpw3OGH0-180">
          <mxGeometry width="50" height="50" relative="1" as="geometry">
            <mxPoint x="900" y="1980" as="sourcePoint" />
            <mxPoint x="967" y="1954" as="targetPoint" />
          </mxGeometry>
        </mxCell>
        <mxCell id="JOR5eb2Kpy74Wpw3OGH0-238" style="rounded=0;orthogonalLoop=1;jettySize=auto;html=1;entryX=1;entryY=0.5;entryDx=0;entryDy=0;exitX=0;exitY=0.5;exitDx=0;exitDy=0;" edge="1" parent="1" source="JOR5eb2Kpy74Wpw3OGH0-215" target="JOR5eb2Kpy74Wpw3OGH0-209">
          <mxGeometry relative="1" as="geometry">
            <mxPoint x="-286" y="575" as="targetPoint" />
            <mxPoint x="-260" y="575" as="sourcePoint" />
          </mxGeometry>
        </mxCell>
        <mxCell id="JOR5eb2Kpy74Wpw3OGH0-239" value="Система делает расчет времени и стоимости, после выводится картинка и кнопка действия" style="text;html=1;align=center;verticalAlign=middle;resizable=0;points=[];autosize=1;strokeColor=none;fillColor=none;" vertex="1" parent="1">
          <mxGeometry x="2336" y="1428.5" width="550" height="30" as="geometry" />
        </mxCell>
        <mxCell id="JOR5eb2Kpy74Wpw3OGH0-240" value="Название вида транспорта (в нашем случае Такси)" style="rounded=1;whiteSpace=wrap;html=1;arcSize=22;fillColor=#d5e8d4;strokeColor=#82b366;" vertex="1" parent="1">
          <mxGeometry x="-424.5" y="555" width="120" height="60" as="geometry" />
        </mxCell>
        <mxCell id="JOR5eb2Kpy74Wpw3OGH0-241" style="rounded=0;orthogonalLoop=1;jettySize=auto;html=1;entryX=1;entryY=0.5;entryDx=0;entryDy=0;" edge="1" parent="1" target="JOR5eb2Kpy74Wpw3OGH0-240">
          <mxGeometry relative="1" as="geometry">
            <mxPoint x="-296" y="653" as="targetPoint" />
            <mxPoint x="-270" y="570" as="sourcePoint" />
          </mxGeometry>
        </mxCell>
        <mxCell id="JOR5eb2Kpy74Wpw3OGH0-244" value="Указал ранее &quot;клик&quot; для того чтобы наглядно было понятно как отображено в макетах(небольшое пояснение для себя)&amp;nbsp;" style="ellipse;shape=cloud;whiteSpace=wrap;html=1;" vertex="1" parent="1">
          <mxGeometry x="1360" y="1422.25" width="210" height="90" as="geometry" />
        </mxCell>
        <mxCell id="JOR5eb2Kpy74Wpw3OGH0-245" value="Перемещение по карте с помощью мышки или клавиатуры ( стрелочки - кнопки (вверх, вниз, вправо, влево )" style="rounded=1;whiteSpace=wrap;html=1;arcSize=22;fillColor=#d5e8d4;strokeColor=#82b366;" vertex="1" parent="1">
          <mxGeometry x="940" y="1529" width="253" height="41" as="geometry" />
        </mxCell>
        <mxCell id="JOR5eb2Kpy74Wpw3OGH0-246" value="" style="endArrow=classic;html=1;rounded=0;entryX=0;entryY=0.5;entryDx=0;entryDy=0;exitX=1;exitY=0.5;exitDx=0;exitDy=0;" edge="1" parent="1" source="JOR5eb2Kpy74Wpw3OGH0-226" target="JOR5eb2Kpy74Wpw3OGH0-245">
          <mxGeometry width="50" height="50" relative="1" as="geometry">
            <mxPoint x="917" y="1537" as="sourcePoint" />
            <mxPoint x="950" y="1499" as="targetPoint" />
          </mxGeometry>
        </mxCell>
        <mxCell id="JOR5eb2Kpy74Wpw3OGH0-247" value="если планшет или смартфон то тачскрин)" style="ellipse;shape=cloud;whiteSpace=wrap;html=1;" vertex="1" parent="1">
          <mxGeometry x="1250" y="1480" width="120" height="80" as="geometry" />
        </mxCell>
        <mxCell id="JOR5eb2Kpy74Wpw3OGH0-248" value="" style="endArrow=none;dashed=1;html=1;dashPattern=1 3;strokeWidth=2;rounded=0;exitX=1;exitY=0.5;exitDx=0;exitDy=0;entryX=0.31;entryY=0.8;entryDx=0;entryDy=0;entryPerimeter=0;" edge="1" parent="1" source="JOR5eb2Kpy74Wpw3OGH0-245" target="JOR5eb2Kpy74Wpw3OGH0-247">
          <mxGeometry width="50" height="50" relative="1" as="geometry">
            <mxPoint x="1200" y="1551.5" as="sourcePoint" />
            <mxPoint x="1250" y="1501.5" as="targetPoint" />
          </mxGeometry>
        </mxCell>
        <mxCell id="JOR5eb2Kpy74Wpw3OGH0-249" value="" style="endArrow=none;dashed=1;html=1;dashPattern=1 3;strokeWidth=2;rounded=0;entryX=0;entryY=1;entryDx=0;entryDy=0;exitX=0.88;exitY=0.25;exitDx=0;exitDy=0;exitPerimeter=0;" edge="1" parent="1" source="JOR5eb2Kpy74Wpw3OGH0-244" target="XxnkFZLl8l21hD6HUk1a-246">
          <mxGeometry width="50" height="50" relative="1" as="geometry">
            <mxPoint x="1680" y="1430" as="sourcePoint" />
            <mxPoint x="1730" y="1380" as="targetPoint" />
          </mxGeometry>
        </mxCell>
      </root>
    </mxGraphModel>
  </diagram>
  <diagram id="jMz0iBHPzpBQ2ei6_6GA" name="блок схема">
    <mxGraphModel dx="1468" dy="1037" grid="1" gridSize="10" guides="1" tooltips="1" connect="1" arrows="1" fold="1" page="1" pageScale="1" pageWidth="827" pageHeight="1169" math="0" shadow="0">
      <root>
        <mxCell id="0" />
        <mxCell id="1" parent="0" />
        <mxCell id="l8E9WSTvbakBY1ko9GT5-2" value="" style="ellipse;shape=cloud;whiteSpace=wrap;html=1;" parent="1" vertex="1">
          <mxGeometry x="150" y="80" width="200" height="80" as="geometry" />
        </mxCell>
        <mxCell id="NOPCqyMZ7DyBpMCz0e_V-7" value="" style="edgeStyle=orthogonalEdgeStyle;rounded=0;orthogonalLoop=1;jettySize=auto;html=1;" parent="1" source="zAMXyoHc1qSj-oOQqRB0-1" target="zAMXyoHc1qSj-oOQqRB0-4" edge="1">
          <mxGeometry relative="1" as="geometry" />
        </mxCell>
        <mxCell id="zAMXyoHc1qSj-oOQqRB0-1" value="Начало" style="rounded=1;whiteSpace=wrap;html=1;" parent="1" vertex="1">
          <mxGeometry x="405" y="130" width="120" height="40" as="geometry" />
        </mxCell>
        <mxCell id="zAMXyoHc1qSj-oOQqRB0-2" value="Конец" style="rounded=1;whiteSpace=wrap;html=1;" parent="1" vertex="1">
          <mxGeometry x="405" y="850" width="120" height="40" as="geometry" />
        </mxCell>
        <mxCell id="NOPCqyMZ7DyBpMCz0e_V-10" value="" style="edgeStyle=orthogonalEdgeStyle;rounded=0;orthogonalLoop=1;jettySize=auto;html=1;" parent="1" source="zAMXyoHc1qSj-oOQqRB0-3" target="NOPCqyMZ7DyBpMCz0e_V-9" edge="1">
          <mxGeometry relative="1" as="geometry" />
        </mxCell>
        <mxCell id="NOPCqyMZ7DyBpMCz0e_V-14" style="edgeStyle=orthogonalEdgeStyle;rounded=0;orthogonalLoop=1;jettySize=auto;html=1;exitX=0.5;exitY=1;exitDx=0;exitDy=0;entryX=0.5;entryY=0;entryDx=0;entryDy=0;" parent="1" source="zAMXyoHc1qSj-oOQqRB0-3" target="NOPCqyMZ7DyBpMCz0e_V-13" edge="1">
          <mxGeometry relative="1" as="geometry" />
        </mxCell>
        <mxCell id="zAMXyoHc1qSj-oOQqRB0-3" value="00:01 - 08:00" style="rhombus;whiteSpace=wrap;html=1;" parent="1" vertex="1">
          <mxGeometry x="404" y="330" width="121" height="80" as="geometry" />
        </mxCell>
        <mxCell id="NOPCqyMZ7DyBpMCz0e_V-8" value="" style="edgeStyle=orthogonalEdgeStyle;rounded=0;orthogonalLoop=1;jettySize=auto;html=1;" parent="1" source="zAMXyoHc1qSj-oOQqRB0-4" target="zAMXyoHc1qSj-oOQqRB0-3" edge="1">
          <mxGeometry relative="1" as="geometry" />
        </mxCell>
        <mxCell id="zAMXyoHc1qSj-oOQqRB0-4" value="Ввести время начала поездки" style="rounded=0;whiteSpace=wrap;html=1;" parent="1" vertex="1">
          <mxGeometry x="405" y="210" width="120" height="80" as="geometry" />
        </mxCell>
        <mxCell id="NOPCqyMZ7DyBpMCz0e_V-12" style="edgeStyle=orthogonalEdgeStyle;rounded=0;orthogonalLoop=1;jettySize=auto;html=1;exitX=1;exitY=0.5;exitDx=0;exitDy=0;entryX=1;entryY=0.5;entryDx=0;entryDy=0;" parent="1" source="NOPCqyMZ7DyBpMCz0e_V-9" target="zAMXyoHc1qSj-oOQqRB0-2" edge="1">
          <mxGeometry relative="1" as="geometry">
            <mxPoint x="800" y="870" as="targetPoint" />
            <Array as="points">
              <mxPoint x="800" y="370" />
              <mxPoint x="800" y="870" />
            </Array>
          </mxGeometry>
        </mxCell>
        <mxCell id="NOPCqyMZ7DyBpMCz0e_V-9" value="45 км/ч" style="whiteSpace=wrap;html=1;" parent="1" vertex="1">
          <mxGeometry x="605.5" y="340" width="120" height="60" as="geometry" />
        </mxCell>
        <mxCell id="NOPCqyMZ7DyBpMCz0e_V-11" value="да" style="text;html=1;align=center;verticalAlign=middle;resizable=0;points=[];autosize=1;strokeColor=none;fillColor=none;" parent="1" vertex="1">
          <mxGeometry x="530" y="345" width="40" height="30" as="geometry" />
        </mxCell>
        <mxCell id="NOPCqyMZ7DyBpMCz0e_V-17" value="" style="edgeStyle=orthogonalEdgeStyle;rounded=0;orthogonalLoop=1;jettySize=auto;html=1;" parent="1" source="NOPCqyMZ7DyBpMCz0e_V-13" target="NOPCqyMZ7DyBpMCz0e_V-16" edge="1">
          <mxGeometry relative="1" as="geometry" />
        </mxCell>
        <mxCell id="NOPCqyMZ7DyBpMCz0e_V-20" value="" style="edgeStyle=orthogonalEdgeStyle;rounded=0;orthogonalLoop=1;jettySize=auto;html=1;" parent="1" source="NOPCqyMZ7DyBpMCz0e_V-13" target="NOPCqyMZ7DyBpMCz0e_V-19" edge="1">
          <mxGeometry relative="1" as="geometry" />
        </mxCell>
        <mxCell id="NOPCqyMZ7DyBpMCz0e_V-13" value="08:01 - 12:00" style="rhombus;whiteSpace=wrap;html=1;" parent="1" vertex="1">
          <mxGeometry x="404" y="430" width="121" height="80" as="geometry" />
        </mxCell>
        <mxCell id="NOPCqyMZ7DyBpMCz0e_V-15" value="нет" style="text;html=1;align=center;verticalAlign=middle;resizable=0;points=[];autosize=1;strokeColor=none;fillColor=none;" parent="1" vertex="1">
          <mxGeometry x="400" y="405" width="40" height="30" as="geometry" />
        </mxCell>
        <mxCell id="NOPCqyMZ7DyBpMCz0e_V-16" value="30 км/ч" style="whiteSpace=wrap;html=1;" parent="1" vertex="1">
          <mxGeometry x="605.5" y="440" width="120" height="60" as="geometry" />
        </mxCell>
        <mxCell id="NOPCqyMZ7DyBpMCz0e_V-18" value="да" style="text;html=1;align=center;verticalAlign=middle;resizable=0;points=[];autosize=1;strokeColor=none;fillColor=none;" parent="1" vertex="1">
          <mxGeometry x="530" y="445" width="40" height="30" as="geometry" />
        </mxCell>
        <mxCell id="NOPCqyMZ7DyBpMCz0e_V-22" style="edgeStyle=orthogonalEdgeStyle;rounded=0;orthogonalLoop=1;jettySize=auto;html=1;exitX=1;exitY=0.5;exitDx=0;exitDy=0;entryX=0;entryY=0.5;entryDx=0;entryDy=0;" parent="1" source="NOPCqyMZ7DyBpMCz0e_V-19" target="NOPCqyMZ7DyBpMCz0e_V-21" edge="1">
          <mxGeometry relative="1" as="geometry" />
        </mxCell>
        <mxCell id="NOPCqyMZ7DyBpMCz0e_V-26" style="edgeStyle=orthogonalEdgeStyle;rounded=0;orthogonalLoop=1;jettySize=auto;html=1;exitX=0.5;exitY=1;exitDx=0;exitDy=0;entryX=0.5;entryY=0;entryDx=0;entryDy=0;" parent="1" source="NOPCqyMZ7DyBpMCz0e_V-19" target="NOPCqyMZ7DyBpMCz0e_V-25" edge="1">
          <mxGeometry relative="1" as="geometry" />
        </mxCell>
        <mxCell id="NOPCqyMZ7DyBpMCz0e_V-19" value="12:01 - 18:00" style="rhombus;whiteSpace=wrap;html=1;" parent="1" vertex="1">
          <mxGeometry x="404.5" y="530" width="121" height="80" as="geometry" />
        </mxCell>
        <mxCell id="NOPCqyMZ7DyBpMCz0e_V-21" value="40 км/ч" style="whiteSpace=wrap;html=1;" parent="1" vertex="1">
          <mxGeometry x="605.5" y="540" width="120" height="60" as="geometry" />
        </mxCell>
        <mxCell id="NOPCqyMZ7DyBpMCz0e_V-23" value="да" style="text;html=1;align=center;verticalAlign=middle;resizable=0;points=[];autosize=1;strokeColor=none;fillColor=none;" parent="1" vertex="1">
          <mxGeometry x="530" y="545" width="40" height="30" as="geometry" />
        </mxCell>
        <mxCell id="NOPCqyMZ7DyBpMCz0e_V-24" value="нет" style="text;html=1;align=center;verticalAlign=middle;resizable=0;points=[];autosize=1;strokeColor=none;fillColor=none;" parent="1" vertex="1">
          <mxGeometry x="400" y="505" width="40" height="30" as="geometry" />
        </mxCell>
        <mxCell id="NOPCqyMZ7DyBpMCz0e_V-28" value="" style="edgeStyle=orthogonalEdgeStyle;rounded=0;orthogonalLoop=1;jettySize=auto;html=1;" parent="1" source="NOPCqyMZ7DyBpMCz0e_V-25" target="NOPCqyMZ7DyBpMCz0e_V-27" edge="1">
          <mxGeometry relative="1" as="geometry" />
        </mxCell>
        <mxCell id="NOPCqyMZ7DyBpMCz0e_V-34" value="" style="edgeStyle=orthogonalEdgeStyle;rounded=0;orthogonalLoop=1;jettySize=auto;html=1;" parent="1" source="NOPCqyMZ7DyBpMCz0e_V-25" target="NOPCqyMZ7DyBpMCz0e_V-31" edge="1">
          <mxGeometry relative="1" as="geometry" />
        </mxCell>
        <mxCell id="NOPCqyMZ7DyBpMCz0e_V-25" value="18:01 - 22:00" style="rhombus;whiteSpace=wrap;html=1;" parent="1" vertex="1">
          <mxGeometry x="405" y="630" width="121" height="80" as="geometry" />
        </mxCell>
        <mxCell id="NOPCqyMZ7DyBpMCz0e_V-27" value="25 км/ч" style="whiteSpace=wrap;html=1;" parent="1" vertex="1">
          <mxGeometry x="605.5" y="640" width="120" height="60" as="geometry" />
        </mxCell>
        <mxCell id="NOPCqyMZ7DyBpMCz0e_V-29" value="да" style="text;html=1;align=center;verticalAlign=middle;resizable=0;points=[];autosize=1;strokeColor=none;fillColor=none;" parent="1" vertex="1">
          <mxGeometry x="530" y="640" width="40" height="30" as="geometry" />
        </mxCell>
        <mxCell id="NOPCqyMZ7DyBpMCz0e_V-30" value="нет" style="text;html=1;align=center;verticalAlign=middle;resizable=0;points=[];autosize=1;strokeColor=none;fillColor=none;" parent="1" vertex="1">
          <mxGeometry x="400" y="605" width="40" height="30" as="geometry" />
        </mxCell>
        <mxCell id="NOPCqyMZ7DyBpMCz0e_V-33" value="" style="edgeStyle=orthogonalEdgeStyle;rounded=0;orthogonalLoop=1;jettySize=auto;html=1;" parent="1" source="NOPCqyMZ7DyBpMCz0e_V-31" target="NOPCqyMZ7DyBpMCz0e_V-32" edge="1">
          <mxGeometry relative="1" as="geometry" />
        </mxCell>
        <mxCell id="NOPCqyMZ7DyBpMCz0e_V-38" value="" style="edgeStyle=orthogonalEdgeStyle;rounded=0;orthogonalLoop=1;jettySize=auto;html=1;" parent="1" source="NOPCqyMZ7DyBpMCz0e_V-31" target="NOPCqyMZ7DyBpMCz0e_V-37" edge="1">
          <mxGeometry relative="1" as="geometry" />
        </mxCell>
        <mxCell id="NOPCqyMZ7DyBpMCz0e_V-31" value="22:01 - 00:00" style="rhombus;whiteSpace=wrap;html=1;" parent="1" vertex="1">
          <mxGeometry x="405" y="730" width="121" height="80" as="geometry" />
        </mxCell>
        <mxCell id="NOPCqyMZ7DyBpMCz0e_V-32" value="45 км/ч" style="whiteSpace=wrap;html=1;" parent="1" vertex="1">
          <mxGeometry x="605.5" y="740" width="120" height="60" as="geometry" />
        </mxCell>
        <mxCell id="NOPCqyMZ7DyBpMCz0e_V-35" value="нет" style="text;html=1;align=center;verticalAlign=middle;resizable=0;points=[];autosize=1;strokeColor=none;fillColor=none;" parent="1" vertex="1">
          <mxGeometry x="400" y="705" width="40" height="30" as="geometry" />
        </mxCell>
        <mxCell id="NOPCqyMZ7DyBpMCz0e_V-36" value="да" style="text;html=1;align=center;verticalAlign=middle;resizable=0;points=[];autosize=1;strokeColor=none;fillColor=none;" parent="1" vertex="1">
          <mxGeometry x="530" y="740" width="40" height="30" as="geometry" />
        </mxCell>
        <mxCell id="NOPCqyMZ7DyBpMCz0e_V-44" style="edgeStyle=orthogonalEdgeStyle;rounded=0;orthogonalLoop=1;jettySize=auto;html=1;" parent="1" source="NOPCqyMZ7DyBpMCz0e_V-37" edge="1">
          <mxGeometry relative="1" as="geometry">
            <mxPoint x="400" y="250" as="targetPoint" />
            <Array as="points">
              <mxPoint x="130" y="770" />
              <mxPoint x="130" y="250" />
              <mxPoint x="390" y="250" />
            </Array>
          </mxGeometry>
        </mxCell>
        <mxCell id="NOPCqyMZ7DyBpMCz0e_V-37" value="При некорректном вводе подсвечивается красным, ошибка «Вы ввели некорректное время»." style="whiteSpace=wrap;html=1;" parent="1" vertex="1">
          <mxGeometry x="150" y="740" width="174.5" height="60" as="geometry" />
        </mxCell>
        <mxCell id="NOPCqyMZ7DyBpMCz0e_V-40" value="" style="endArrow=none;html=1;rounded=0;exitX=1;exitY=0.5;exitDx=0;exitDy=0;" parent="1" source="NOPCqyMZ7DyBpMCz0e_V-16" edge="1">
          <mxGeometry width="50" height="50" relative="1" as="geometry">
            <mxPoint x="740" y="495" as="sourcePoint" />
            <mxPoint x="800" y="470" as="targetPoint" />
          </mxGeometry>
        </mxCell>
        <mxCell id="NOPCqyMZ7DyBpMCz0e_V-41" value="" style="endArrow=none;html=1;rounded=0;exitX=1;exitY=0.5;exitDx=0;exitDy=0;" parent="1" edge="1">
          <mxGeometry width="50" height="50" relative="1" as="geometry">
            <mxPoint x="725.5" y="569.72" as="sourcePoint" />
            <mxPoint x="799.5" y="569.72" as="targetPoint" />
          </mxGeometry>
        </mxCell>
        <mxCell id="NOPCqyMZ7DyBpMCz0e_V-42" value="" style="endArrow=none;html=1;rounded=0;exitX=1;exitY=0.5;exitDx=0;exitDy=0;" parent="1" edge="1">
          <mxGeometry width="50" height="50" relative="1" as="geometry">
            <mxPoint x="725.5" y="670" as="sourcePoint" />
            <mxPoint x="799.5" y="670" as="targetPoint" />
          </mxGeometry>
        </mxCell>
        <mxCell id="NOPCqyMZ7DyBpMCz0e_V-43" value="" style="endArrow=none;html=1;rounded=0;exitX=1;exitY=0.5;exitDx=0;exitDy=0;" parent="1" edge="1">
          <mxGeometry width="50" height="50" relative="1" as="geometry">
            <mxPoint x="725.5" y="770" as="sourcePoint" />
            <mxPoint x="799.5" y="770" as="targetPoint" />
          </mxGeometry>
        </mxCell>
        <mxCell id="NOPCqyMZ7DyBpMCz0e_V-45" value="если соответсвует диапазону вр./сут,&amp;nbsp; то устанавливается скорость&amp;nbsp;" style="text;html=1;align=center;verticalAlign=middle;resizable=0;points=[];autosize=1;strokeColor=none;fillColor=none;" parent="1" vertex="1">
          <mxGeometry x="590" y="290" width="410" height="30" as="geometry" />
        </mxCell>
        <mxCell id="yDrdaxP-ubkgGebVrEZS-1" value="&lt;meta charset=&quot;utf-8&quot;&gt;&lt;span style=&quot;color: rgb(0, 0, 0); font-family: Helvetica; font-size: 12px; font-style: normal; font-variant-ligatures: normal; font-variant-caps: normal; font-weight: 400; letter-spacing: normal; orphans: 2; text-align: center; text-indent: 0px; text-transform: none; widows: 2; word-spacing: 0px; -webkit-text-stroke-width: 0px; background-color: rgb(251, 251, 251); text-decoration-thickness: initial; text-decoration-style: initial; text-decoration-color: initial; float: none; display: inline !important;&quot;&gt;нет&lt;/span&gt;" style="text;whiteSpace=wrap;html=1;" parent="1" vertex="1">
          <mxGeometry x="360" y="740" width="50" height="40" as="geometry" />
        </mxCell>
        <mxCell id="l8E9WSTvbakBY1ko9GT5-1" value="Собственный автомобиль" style="text;html=1;align=center;verticalAlign=middle;resizable=0;points=[];autosize=1;strokeColor=none;fillColor=none;" parent="1" vertex="1">
          <mxGeometry x="165" y="110" width="170" height="30" as="geometry" />
        </mxCell>
      </root>
    </mxGraphModel>
  </diagram>
</mxfile>
